<?xml version="1.0" encoding="UTF-8"?>
<svg width="97px" height="97px" viewBox="0 0 97 97" version="1.1" xmlns="http://www.w3.org/2000/svg" xmlns:xlink="http://www.w3.org/1999/xlink">
    <!-- Generator: Sketch 43.2 (39069) - http://www.bohemiancoding.com/sketch -->
    <title>Page 1</title>
    <desc>Created with Sketch.</desc>
    <defs></defs>
    <g id="Page-1" stroke="none" stroke-width="1" fill="none" fill-rule="evenodd" stroke-linecap="round" stroke-linejoin="round">
        <path d="M22.111,88.001 C9.381,79.48 1,64.969 1,48.5 C1,22.266 22.267,1 48.5,1 C74.734,1 96,22.266 96,48.5 C96,64.969 87.619,79.48 74.889,88.001 L22.111,88.001 Z M53.778,95.71 C52.045,95.901 50.284,96 48.5,96 C46.716,96 44.955,95.901 43.222,95.71 L53.778,95.71 Z M72.959,42.819 C72.959,56.328 62.009,67.278 48.5,67.278 C34.992,67.278 24.041,56.328 24.041,42.819 C24.041,29.311 34.992,18.36 48.5,18.36 C62.009,18.36 72.959,29.311 72.959,42.819 Z M48.5,10.49 L51.14,13.553 L54.284,11.011 L56.335,14.496 L59.883,12.556 L61.278,16.351 L65.115,15.075 L65.81,19.059 L69.814,18.489 L69.786,22.533 L73.827,22.687 L73.078,26.661 L77.026,27.534 L75.58,31.31 L79.309,32.874 L77.211,36.331 L80.601,38.536 L77.92,41.563 L80.862,44.338 L77.683,46.837 L80.082,50.093 L76.508,51.985 L78.287,55.616 L74.433,56.839 L75.535,60.73 L71.524,61.246 L71.915,65.271 L67.876,65.062 L67.541,69.092 L63.605,68.165 L62.555,72.071 L58.848,70.456 L57.118,74.111 L53.758,71.86 L51.404,75.148 L48.5,72.334 L45.596,75.148 L43.242,71.86 L39.882,74.111 L38.152,70.456 L34.445,72.071 L33.395,68.165 L29.459,69.092 L29.124,65.062 L25.086,65.271 L25.476,61.246 L21.465,60.73 L22.567,56.839 L18.713,55.616 L20.492,51.985 L16.918,50.093 L19.317,46.837 L16.138,44.338 L19.08,41.563 L16.399,38.536 L19.789,36.331 L17.691,32.874 L21.421,31.31 L19.974,27.534 L23.922,26.661 L23.173,22.687 L27.214,22.533 L27.187,18.489 L31.19,19.059 L31.885,15.075 L35.722,16.351 L37.118,12.556 L40.665,14.496 L42.716,11.011 L45.86,13.553 L48.5,10.49 Z M53.116,77.91 L58.919,94.813 L62.199,88.108 L68.903,91.388 L63.544,75.777 L53.116,77.91 Z M33.385,75.808 L28.036,91.359 L34.745,88.089 L38.015,94.798 L43.844,77.853 L33.385,75.808 Z" stroke="#0064D2" stroke-width="2"></path>
    </g>
</svg>