<?xml version="1.0" encoding="UTF-8"?>
<svg width="105px" height="40px" viewBox="0 0 105 40" version="1.1" xmlns="http://www.w3.org/2000/svg" xmlns:xlink="http://www.w3.org/1999/xlink">
    <!-- Generator: Sketch 43.2 (39069) - http://www.bohemiancoding.com/sketch -->
    <title>Page 1</title>
    <desc>Created with Sketch.</desc>
    <defs>
        <polygon id="path-1" points="0.000196547291 40 104.21784 40 104.21784 0 0.000196547291 0 0.000196547291 40"></polygon>
    </defs>
    <g id="Page-1" stroke="none" stroke-width="1" fill="none" fill-rule="evenodd">
        <g>
            <mask id="mask-2" fill="white">
                <use xlink:href="#path-1"></use>
            </mask>
            <g id="Clip-2"></g>
            <path d="M43.9779,18.8293 L43.9779,14.7313 C43.9779,12.4333 43.9779,11.7053 43.8249,10.7483 C43.6719,9.7523 42.8289,9.3303 41.8709,9.1013 C41.4499,8.9863 41.4879,8.5643 41.9099,8.5643 C43.1739,8.5643 44.0549,8.6793 45.2419,8.6793 L49.1869,8.6793 C51.2169,8.6793 52.5189,8.6413 52.8639,8.5263 C53.0549,8.4113 53.2079,8.3733 53.2469,8.3733 C53.3229,8.3733 53.4379,8.4503 53.3999,8.6413 C53.2079,9.5603 53.1319,10.9773 53.2079,11.9353 C53.2469,12.4333 52.7489,12.5093 52.6719,12.0503 C52.5189,11.2073 51.9439,10.3653 51.2169,10.1733 C50.4509,9.9433 49.7609,9.9053 48.3819,9.9053 L47.3869,9.9053 C46.5819,9.9053 46.5059,9.9823 46.4289,10.5943 C46.3909,10.9393 46.3529,11.9733 46.3529,13.1613 L46.3529,15.2293 C46.3529,15.6883 46.3529,15.6503 47.1569,15.7273 L47.9609,15.7273 C50.1059,15.7273 50.9869,15.6123 51.3319,15.4973 C51.7909,15.3443 52.0979,14.9993 52.2119,14.8073 C52.3269,14.6163 52.5959,14.6933 52.5569,14.9613 C52.4809,15.5733 52.3659,16.5313 52.3659,18.7913 C52.3659,19.0973 51.9439,19.1353 51.9059,18.8293 C51.8679,18.5993 51.7529,18.2543 51.5229,17.8333 C51.1399,17.1823 50.1829,16.9523 48.1909,16.9523 L47.0419,16.9523 C46.4679,16.9523 46.3529,16.9913 46.3529,17.4503 L46.3529,19.2503 C46.3529,21.9313 46.4289,22.8893 46.6969,23.2723 C46.9649,23.6933 47.8079,23.7703 49.3399,23.7703 C50.2589,23.7703 51.1779,23.7323 51.7529,23.6163 C52.3269,23.5403 52.7869,23.2723 53.1699,22.8893 C53.4759,22.5063 53.7059,21.9313 53.8589,21.4723 C53.9739,21.1653 54.3569,21.2033 54.3569,21.5103 C54.3569,21.8933 54.2039,23.3493 53.9739,24.4983 C53.8589,24.9953 53.6299,25.0343 52.5959,25.0343 L44.6669,24.9193 C43.5569,24.9193 42.5609,25.0343 41.1439,25.0343 C40.7219,25.0343 40.7219,24.5743 41.0289,24.5363 C42.3309,24.2683 43.5179,24.0383 43.7869,22.9663 C43.8629,22.5833 43.9779,21.7783 43.9779,18.8293 L43.9779,18.8293 Z M16.7329,21.4723 C16.5799,21.9313 16.3499,22.5063 16.0439,22.8893 C15.6609,23.2723 15.2009,23.5403 14.6269,23.6163 C14.0519,23.7323 13.1329,23.7703 12.2139,23.7703 C10.6819,23.7703 9.8389,23.6933 9.5709,23.2723 C9.3029,22.8893 9.2259,21.9313 9.2259,19.2503 L9.2259,17.4503 C9.2259,16.9913 9.3409,16.9523 9.9159,16.9523 L11.0649,16.9523 C13.0559,16.9523 14.0139,17.1823 14.3969,17.8333 C14.6269,18.2543 14.7419,18.5993 14.7799,18.8293 C14.8179,19.1353 15.2399,19.0973 15.2399,18.7913 C15.2399,16.5313 15.3539,15.5733 15.4309,14.9613 C15.4689,14.6933 15.2009,14.6163 15.0859,14.8073 C14.9709,14.9993 14.6649,15.3443 14.2049,15.4973 C13.8609,15.6123 12.9799,15.7273 10.8349,15.7273 L10.0309,15.7273 C9.2259,15.6503 9.2259,15.6883 9.2259,15.2293 L9.2259,13.1613 C9.2259,11.9733 9.2649,10.9393 9.3029,10.5943 C9.3799,9.9823 9.4559,9.9053 10.2599,9.9053 L11.2559,9.9053 C12.6349,9.9053 13.3249,9.9433 14.0909,10.1733 C14.8179,10.3653 15.3929,11.2073 15.5459,12.0503 C15.6229,12.5093 16.1209,12.4333 16.0819,11.9353 C16.0059,10.9773 16.0819,9.5603 16.2739,8.6413 C16.3119,8.4503 16.1969,8.3733 16.1209,8.3733 C16.0819,8.3733 15.9289,8.4113 15.7369,8.5263 C15.3929,8.6413 14.0909,8.6793 12.0609,8.6793 L8.1159,8.6793 C6.9279,8.6793 6.0479,8.5643 4.7839,8.5643 C4.3619,8.5643 4.3239,8.9863 4.7449,9.1013 C5.7029,9.3303 6.5449,9.7523 6.6989,10.7483 C6.8519,11.7053 6.8519,12.4333 6.8519,14.7313 L6.8519,18.8293 C6.8519,21.7783 6.7369,22.5833 6.6599,22.9663 C6.3919,24.0383 5.2049,24.2683 3.9029,24.5363 C3.5959,24.5743 3.5959,25.0343 4.0179,25.0343 C5.4349,25.0343 6.4309,24.9193 7.5409,24.9193 L15.4689,25.0343 C16.5029,25.0343 16.7329,24.9953 16.8479,24.4983 C17.0779,23.3493 17.2309,21.8933 17.2309,21.5103 C17.2309,21.2033 16.8479,21.1653 16.7329,21.4723 L16.7329,21.4723 Z M104.1509,24.9953 C103.9979,25.0723 103.3459,25.2253 102.5419,25.2253 C101.1249,25.2253 99.6699,24.7653 98.7889,23.9993 C97.3719,22.6593 96.3759,20.8593 95.2269,18.6383 C94.8819,17.9103 94.6139,17.8333 94.1929,17.8713 C93.6569,17.9103 93.0439,17.9863 92.4309,17.9863 C92.2399,17.9863 92.2009,18.0633 92.2009,18.7913 L92.2009,20.3993 C92.2009,21.6253 92.2399,22.0463 92.3159,22.5063 C92.5459,23.7323 92.8139,24.0763 94.4989,24.5363 C94.9209,24.6513 94.9209,25.0343 94.4609,25.0343 C93.4269,25.0343 92.3159,24.9193 91.2049,24.9193 C90.0559,24.9193 88.8689,25.0343 87.7969,25.0343 C87.3749,25.0343 87.2989,24.6513 87.7199,24.5363 C89.1759,24.1533 89.5199,23.8463 89.6729,22.7353 C89.7119,22.1993 89.8269,21.2423 89.8269,19.7483 L89.8269,13.7353 C89.8269,12.3563 89.7119,11.4373 89.6729,10.7863 C89.5969,10.2883 89.4819,10.0963 89.3669,9.9433 C89.0989,9.6753 88.2559,9.5603 87.5289,9.4843 C87.0299,9.4453 87.0689,9.0623 87.5289,8.9863 C88.0649,8.9093 91.1669,8.4883 93.6179,8.4883 C99.3629,8.3353 99.6319,11.7053 99.6319,12.8163 C99.6319,14.4243 98.7119,15.6503 98.0229,16.0713 L97.2569,16.5693 C97.0649,16.6843 96.9889,16.7993 97.1419,17.1443 C98.4439,19.8633 100.3209,22.2763 101.6609,23.3493 C102.9249,24.3823 103.9209,24.6513 104.0739,24.6893 C104.2279,24.7273 104.2659,24.9573 104.1509,24.9953 L104.1509,24.9953 Z M97.2189,13.8883 C97.2189,11.5903 95.6869,9.5603 93.0059,9.5603 C92.4689,9.5603 92.3929,9.6753 92.3159,9.9433 C92.2399,10.1733 92.2009,10.6713 92.2009,12.4333 L92.2009,16.1483 C92.2009,16.5693 92.2399,16.6843 92.5459,16.7223 C93.0439,16.7613 93.5029,16.7613 94.3079,16.7613 C95.5719,16.7613 97.2189,16.0713 97.2189,13.8883 L97.2189,13.8883 Z M85.1539,21.4723 C85.0009,21.9313 84.7709,22.5063 84.4649,22.8893 C84.0819,23.2723 83.6229,23.5403 83.0479,23.6163 C82.4739,23.7323 81.5539,23.7703 80.6349,23.7703 C79.1029,23.7703 78.2609,23.6933 77.9919,23.2723 C77.7239,22.8893 77.6479,21.9313 77.6479,19.2503 L77.6479,17.4503 C77.6479,16.9913 77.7629,16.9523 78.3369,16.9523 L79.4859,16.9523 C81.4779,16.9523 82.4349,17.1823 82.8179,17.8333 C83.0479,18.2543 83.1629,18.5993 83.2019,18.8293 C83.2399,19.1353 83.6609,19.0973 83.6609,18.7913 C83.6609,16.5313 83.7759,15.5733 83.8519,14.9613 C83.8909,14.6933 83.6229,14.6163 83.5079,14.8073 C83.3929,14.9993 83.0859,15.3443 82.6269,15.4973 C82.2819,15.6123 81.4009,15.7273 79.2559,15.7273 L78.4519,15.7273 C77.6479,15.6503 77.6479,15.6883 77.6479,15.2293 L77.6479,13.1613 C77.6479,11.9733 77.6859,10.9393 77.7239,10.5943 C77.8009,9.9823 77.8779,9.9053 78.6819,9.9053 L79.6779,9.9053 C81.0559,9.9053 81.7459,9.9433 82.5119,10.1733 C83.2399,10.3653 83.8139,11.2073 83.9679,12.0503 C84.0439,12.5093 84.5419,12.4333 84.5039,11.9353 C84.4269,10.9773 84.5039,9.5603 84.6949,8.6413 C84.7329,8.4503 84.6179,8.3733 84.5419,8.3733 C84.5039,8.3733 84.3509,8.4113 84.1589,8.5263 C83.8139,8.6413 82.5119,8.6793 80.4819,8.6793 L76.5369,8.6793 C75.3499,8.6793 74.4689,8.5643 73.2049,8.5643 C72.7839,8.5643 72.7449,8.9863 73.1669,9.1013 C74.1239,9.3303 74.9669,9.7523 75.1199,10.7483 C75.2729,11.7053 75.2729,12.4333 75.2729,14.7313 L75.2729,18.8293 C75.2729,21.7783 75.1579,22.5833 75.0819,22.9663 C74.8129,24.0383 73.6259,24.2683 72.3239,24.5363 C72.0179,24.5743 72.0179,25.0343 72.4389,25.0343 C73.8559,25.0343 74.8519,24.9193 75.9619,24.9193 L83.8909,25.0343 C84.9249,25.0343 85.1539,24.9953 85.2699,24.4983 C85.4989,23.3493 85.6529,21.8933 85.6529,21.5103 C85.6529,21.2033 85.2699,21.1653 85.1539,21.4723 L85.1539,21.4723 Z M61.7819,33.4893 C61.5429,34.1593 61.3029,34.9253 60.6809,35.7393 C59.6759,37.0793 58.0479,38.2283 54.2659,38.2283 C48.7599,38.2283 43.8289,34.3983 38.5619,28.0313 C35.6899,24.5843 33.4399,21.1843 30.8059,17.4983 C30.5669,17.1633 30.5669,17.0673 30.7589,16.7803 C31.9559,15.2963 33.0569,13.9073 34.7319,12.0403 C36.5039,10.0293 36.7909,9.7903 39.2809,8.9283 C39.7589,8.7853 39.8069,8.3063 39.2329,8.3063 C37.9399,8.3063 36.8389,8.4503 35.6899,8.4503 C34.5889,8.4503 33.5829,8.3063 31.8599,8.3063 C31.3329,8.3063 31.2849,8.7853 31.8119,8.9283 C33.4879,9.5033 33.8709,9.7903 33.1519,11.1783 C32.2909,12.6153 31.2369,14.0993 30.2319,15.4393 C29.8489,15.9663 29.7529,15.9663 29.5619,15.7273 C28.2209,13.8123 26.7849,11.8013 25.3489,10.0293 C20.2739,3.7103 15.5339,0.3113 9.3579,0.1193 C6.1499,0.1193 4.2349,0.9333 2.3679,2.4653 C1.1709,3.4233 0.4049,4.5243 0.1179,5.2903 C-0.1691,6.0083 0.1179,6.5343 0.4529,6.7743 C0.7399,7.0133 1.1229,6.9183 1.2189,6.3913 C1.6019,3.9973 3.1339,1.6513 7.1079,1.6513 C11.4169,1.6513 15.5819,3.7103 19.9869,8.2583 C22.4279,10.7953 25.4439,14.8653 27.6949,18.1213 C27.8859,18.4083 27.8859,18.5033 27.5029,18.9823 L23.8169,23.6743 C21.0879,27.0253 20.8479,27.3603 18.3109,28.2703 C17.8799,28.4623 17.8319,28.8923 18.4069,28.8923 C19.5559,28.8923 20.5129,28.7493 21.6619,28.7493 C22.8589,28.7493 24.1039,28.8923 25.3009,28.8923 C25.9229,28.8923 25.9229,28.4623 25.3969,28.2703 C23.8169,27.6483 23.2419,27.5043 24.4389,25.4933 C25.6839,23.4353 27.5509,20.8493 28.4129,19.7483 C28.6039,19.5093 28.6999,19.5573 28.8919,19.8443 L32.1949,24.6313 C33.4399,26.3553 34.6369,28.1743 36.5999,30.5203 C40.2379,34.7813 45.5999,40.0003 52.8769,40.0003 C56.8989,40.0003 60.9199,38.3723 62.4519,34.2553 C62.5479,33.8723 62.4999,33.5843 62.3089,33.3933 C62.1169,33.2013 61.9259,33.1533 61.7819,33.4893 L61.7819,33.4893 Z M70.6729,8.0283 C70.1749,8.3733 69.4469,8.6033 68.7579,8.6413 L65.9999,8.6793 L60.7139,8.6793 C58.5309,8.6793 57.7649,8.6413 57.3819,8.5263 C56.9609,8.4113 56.6549,8.2963 56.4249,8.0673 C56.1949,7.8373 55.9269,7.8753 55.9269,8.3353 C55.9269,9.9433 55.6969,11.4753 55.6969,11.8203 C55.6969,12.2413 56.1189,12.3183 56.2329,11.9353 C56.3869,11.4373 56.7699,10.6713 57.3439,10.3263 C58.2249,9.8673 60.7139,9.9053 61.4799,9.9053 C61.9789,9.9053 62.0549,10.0203 62.0549,10.6713 C62.0549,10.9773 62.1319,11.8583 62.1319,14.5783 L62.1319,18.3693 C62.1319,21.2423 61.9789,22.4293 61.9019,22.9663 C61.7869,23.9993 60.7139,24.1533 59.3739,24.5363 C58.9909,24.6513 58.9909,25.0343 59.4509,25.0343 C61.0209,25.0343 61.8629,24.9193 63.0119,24.9193 C64.5059,24.9193 65.5019,25.0343 66.8039,25.0343 C67.3019,25.0343 67.3409,24.6513 66.9579,24.5363 C65.4639,24.0383 64.8129,23.8853 64.6209,22.6213 C64.5059,21.7013 64.5059,20.7443 64.5059,18.1783 L64.5059,14.5393 C64.5059,12.0123 64.5829,10.6713 64.6599,10.3263 C64.6979,10.0203 64.7359,9.9053 65.2339,9.9053 C67.0339,9.9053 67.9149,10.0203 68.5659,10.1733 C69.5239,10.4413 69.7919,11.0923 70.0599,11.7823 C70.2129,12.1263 70.5579,12.0503 70.5959,11.7053 C70.6729,10.2883 70.6729,9.2923 71.0939,8.2583 C71.1709,7.9903 70.9029,7.8753 70.6729,8.0283 L70.6729,8.0283 Z M79.1459,0.3233 C79.4849,0.4323 79.5289,0.5303 79.8999,1.0973 C80.2269,1.6003 80.5109,2.1023 80.7839,2.6473 C80.8599,2.8003 80.8929,2.8983 80.8929,3.1173 L80.8929,3.6733 C80.8929,4.1323 80.8489,4.3503 80.7839,4.4373 C80.6749,4.5903 80.3909,4.6663 80.1829,4.7323 C80.0849,4.7653 80.0959,4.8743 80.2159,4.8743 C80.5759,4.8743 80.8599,4.8413 81.2199,4.8413 C81.5259,4.8413 81.8749,4.8743 82.1699,4.8743 C82.3009,4.8743 82.3009,4.7653 82.2019,4.7323 C81.8419,4.6233 81.6999,4.5463 81.6349,4.3503 C81.5689,4.2303 81.5579,3.9683 81.5579,3.5643 L81.5579,3.0083 C81.5579,2.8663 81.5909,2.7133 81.6779,2.5493 C81.8639,2.1893 82.2789,1.5343 82.6719,1.0213 C82.9989,0.5953 83.0749,0.4973 83.5559,0.3233 C83.6649,0.2903 83.6429,0.1813 83.5339,0.1813 C83.2939,0.1813 83.0649,0.2133 82.8569,0.2133 C82.5739,0.2133 82.3659,0.1813 82.0719,0.1813 C81.9289,0.1813 81.9189,0.3013 82.0059,0.3233 C82.3439,0.4433 82.4429,0.5193 82.2899,0.8683 C82.1149,1.3163 81.7549,1.9053 81.5259,2.2653 C81.4709,2.3533 81.4389,2.3743 81.3839,2.2983 C81.0669,1.8293 80.7289,1.2283 80.5539,0.8683 C80.3579,0.4863 80.4339,0.4643 80.8379,0.3233 C80.9359,0.2903 80.9359,0.1813 80.8049,0.1813 C80.4779,0.1813 80.2599,0.2133 79.9649,0.2133 C79.7579,0.2133 79.4519,0.1813 79.1459,0.1813 C79.0259,0.1813 79.0369,0.2903 79.1459,0.3233 L79.1459,0.3233 Z M72.6849,1.1413 C72.7289,0.9993 72.8379,0.7813 73.0019,0.6833 C73.2529,0.5523 73.9619,0.5633 74.1799,0.5633 C74.3219,0.5633 74.3439,0.5953 74.3439,0.7813 C74.3439,0.8683 74.3659,1.1193 74.3659,1.8943 L74.3659,2.9753 C74.3659,3.7933 74.3219,4.1323 74.2999,4.2853 C74.2679,4.5793 73.9619,4.6233 73.5799,4.7323 C73.4709,4.7653 73.4709,4.8743 73.6019,4.8743 C74.0489,4.8743 74.2889,4.8413 74.6169,4.8413 C75.0419,4.8413 75.3259,4.8743 75.6969,4.8743 C75.8389,4.8743 75.8499,4.7653 75.7409,4.7323 C75.3149,4.5903 75.1299,4.5463 75.0749,4.1863 C75.0419,3.9243 75.0419,3.6513 75.0419,2.9203 L75.0419,1.8833 C75.0419,1.1633 75.0639,0.7813 75.0859,0.6833 C75.0969,0.5953 75.1079,0.5633 75.2499,0.5633 C75.7629,0.5633 76.0139,0.5953 76.1989,0.6393 C76.4719,0.7153 76.5489,0.9013 76.6249,1.0973 C76.6689,1.1963 76.7669,1.1743 76.7779,1.0763 C76.7999,0.6723 76.7999,0.3883 76.9199,0.0933 C76.9419,0.0173 76.8649,-0.0157 76.7999,0.0283 C76.6579,0.1263 76.4509,0.1923 76.2539,0.2033 L75.4679,0.2133 L73.9619,0.2133 C73.3399,0.2133 73.1219,0.2033 73.0129,0.1703 C72.8919,0.1373 72.8049,0.1043 72.7399,0.0393 C72.6739,-0.0267 72.5979,-0.0157 72.5979,0.1153 C72.5979,0.5743 72.5319,1.0103 72.5319,1.1083 C72.5319,1.2283 72.6519,1.2503 72.6849,1.1413 L72.6849,1.1413 Z M88.9159,2.5933 C88.9159,1.9053 89.1559,1.2503 89.7129,0.7703 C90.2369,0.3123 90.8909,0.0833 91.5239,0.0833 C92.8889,0.0833 93.7289,1.1193 93.7289,2.4073 C93.7289,3.1493 93.4889,3.7063 93.1179,4.1213 C92.6599,4.6343 91.9609,4.9723 91.1639,4.9723 C89.8759,4.9723 88.9159,4.0443 88.9159,2.5933 L88.9159,2.5933 Z M89.7229,2.4403 C89.7229,3.5643 90.2799,4.6233 91.5029,4.6233 C92.5719,4.6233 92.9319,3.7393 92.9319,2.7023 C92.9319,1.4803 92.4089,0.4323 91.1529,0.4323 C90.0179,0.4323 89.7229,1.5233 89.7229,2.4403 L89.7229,2.4403 Z M68.3389,4.8743 C68.6769,4.8743 68.9509,4.8413 69.2119,4.8413 C69.5179,4.8413 69.7799,4.8743 70.1399,4.8743 C70.2709,4.8743 70.2709,4.7543 70.1729,4.7323 C69.9109,4.6773 69.6819,4.5903 69.6269,4.3393 C69.5619,4.0663 69.5619,3.6733 69.5619,3.0183 L69.5619,2.0473 C69.5619,1.3923 69.5619,0.9773 69.6159,0.7153 C69.6599,0.4533 69.9109,0.3663 70.0969,0.3233 C70.2049,0.3013 70.2049,0.1813 70.0749,0.1813 C69.7689,0.1813 69.5729,0.2133 69.3319,0.2133 C69.0049,0.2133 68.8089,0.1813 68.3719,0.1813 C68.2409,0.1813 68.2299,0.3013 68.3169,0.3233 C68.5359,0.3773 68.7759,0.4643 68.8409,0.7483 C68.8849,0.9773 68.8849,1.3923 68.8849,2.0473 L68.8849,3.0183 C68.8849,3.6733 68.8849,4.0663 68.8299,4.3933 C68.7869,4.5903 68.5359,4.6993 68.3169,4.7323 C68.2079,4.7543 68.2189,4.8743 68.3389,4.8743 L68.3389,4.8743 Z M24.2929,0.3233 C24.4889,0.3773 24.7179,0.4433 24.7939,0.6063 C24.8379,0.7053 24.8599,0.8033 24.8599,1.4033 L24.8599,3.2043 C24.8599,3.8263 24.9689,4.1643 25.1759,4.4263 C25.4819,4.7973 25.9839,4.9723 26.5839,4.9723 C27.8509,4.9723 28.6359,4.0993 28.6909,2.8003 L28.7449,1.5123 C28.7669,1.0653 28.7999,0.8353 28.8539,0.6943 C28.9419,0.4643 29.1059,0.3663 29.2909,0.3233 C29.3999,0.3013 29.3889,0.1813 29.2689,0.1813 C29.0509,0.1813 28.8109,0.2133 28.5489,0.2133 C28.2319,0.2133 27.9269,0.1813 27.6099,0.1813 C27.5119,0.1813 27.4899,0.2903 27.5889,0.3233 C27.9159,0.4323 28.1019,0.5193 28.1889,0.7263 C28.2429,0.8683 28.2979,1.0973 28.2979,1.6003 L28.2979,2.4073 C28.2979,3.4113 28.1339,3.9353 27.8509,4.1973 C27.5779,4.4923 27.1959,4.5033 26.9449,4.5033 C26.4639,4.5033 26.1149,4.2953 25.9189,4.0993 C25.6899,3.9023 25.5369,3.4663 25.5369,2.8663 L25.5369,2.0583 C25.5369,1.3053 25.5689,0.7373 25.7109,0.5523 C25.7769,0.4433 25.8859,0.3663 26.1149,0.3233 C26.2239,0.3013 26.2129,0.1813 26.0819,0.1813 C25.6899,0.1813 25.5039,0.2133 25.1759,0.2133 C24.9039,0.2133 24.7399,0.1813 24.3029,0.1813 C24.1939,0.1813 24.1939,0.3123 24.2929,0.3233 L24.2929,0.3233 Z M95.9909,0.3233 C96.3509,0.3883 96.5689,0.5303 96.6129,0.9123 C96.6339,1.0973 96.6569,1.3813 96.6569,1.9383 L96.6569,3.1063 C96.6569,3.9243 96.6339,4.0993 96.5909,4.3173 C96.5359,4.5353 96.2749,4.6553 96.0239,4.7323 C95.9469,4.7653 95.9359,4.8743 96.0559,4.8743 C96.4379,4.8743 96.7659,4.8413 97.1259,4.8413 C97.5189,4.8413 97.7589,4.8743 98.0099,4.8743 C98.1739,4.8743 98.1629,4.7543 98.0749,4.7323 C97.6609,4.6233 97.4419,4.5143 97.3989,4.2743 C97.3549,4.0993 97.3329,3.9243 97.3329,3.1383 L97.3329,2.8223 C97.3329,2.6803 97.3439,2.6693 97.5949,2.6693 L97.8349,2.6693 C98.3919,2.6693 98.6649,2.7243 98.7849,2.9313 C98.8609,3.0623 98.8829,3.1713 98.9159,3.2583 C98.9269,3.3243 99.0579,3.3133 99.0579,3.2373 C99.0469,2.6363 99.0799,2.2983 99.1009,2.1233 C99.1119,2.0363 99.0249,2.0143 98.9809,2.1023 C98.9379,2.1893 98.8389,2.2333 98.7299,2.2653 C98.6429,2.2873 98.3919,2.3093 97.8349,2.3093 L97.5619,2.3093 C97.3329,2.3093 97.3329,2.2983 97.3329,2.1563 L97.3329,1.4903 C97.3329,1.1743 97.3439,0.8573 97.3659,0.7153 C97.3879,0.6063 97.4089,0.5633 97.5409,0.5633 L97.8569,0.5633 C98.2499,0.5633 98.4459,0.5743 98.6649,0.6393 C98.9159,0.7153 99.0469,0.9773 99.0799,1.1743 C99.1119,1.2833 99.2429,1.2503 99.2319,1.1413 C99.2209,0.8683 99.2649,0.4643 99.3079,0.2033 C99.3199,0.1263 99.2649,0.1153 99.2209,0.1373 C99.0799,0.2033 98.7519,0.2133 98.4459,0.2133 L97.0709,0.2133 C96.7109,0.2133 96.3729,0.1813 96.0119,0.1813 C95.9039,0.1813 95.8919,0.3123 95.9909,0.3233 L95.9909,0.3233 Z M39.0389,4.8743 C39.3779,4.8743 39.6509,4.8413 39.9129,4.8413 C40.2179,4.8413 40.4799,4.8743 40.8399,4.8743 C40.9709,4.8743 40.9709,4.7543 40.8729,4.7323 C40.6109,4.6773 40.3819,4.5903 40.3279,4.3393 C40.2619,4.0663 40.2619,3.6733 40.2619,3.0183 L40.2619,2.0473 C40.2619,1.3923 40.2619,0.9773 40.3169,0.7153 C40.3599,0.4533 40.6109,0.3663 40.7969,0.3233 C40.9059,0.3013 40.9059,0.1813 40.7749,0.1813 C40.4689,0.1813 40.2729,0.2133 40.0329,0.2133 C39.7049,0.2133 39.5089,0.1813 39.0719,0.1813 C38.9409,0.1813 38.9309,0.3013 39.0179,0.3233 C39.2359,0.3773 39.4759,0.4643 39.5419,0.7483 C39.5849,0.9773 39.5849,1.3923 39.5849,2.0473 L39.5849,3.0183 C39.5849,3.6733 39.5849,4.0663 39.5309,4.3933 C39.4869,4.5903 39.2359,4.6993 39.0179,4.7323 C38.9089,4.7543 38.9199,4.8743 39.0389,4.8743 L39.0389,4.8743 Z M31.4419,0.3233 C31.6709,0.3883 31.9759,0.4863 32.1069,0.7153 C32.1839,0.8573 32.2279,0.9663 32.2279,1.4363 L32.2279,2.5713 C32.2279,3.3783 32.1839,4.0663 32.1289,4.2743 C32.0749,4.4483 31.9109,4.5793 31.7359,4.6453 L31.5179,4.7323 C31.4199,4.7763 31.4199,4.8743 31.5619,4.8743 C31.7909,4.8743 32.1069,4.8413 32.4129,4.8413 C32.7189,4.8413 33.0019,4.8633 33.2639,4.8743 C33.4059,4.8853 33.4059,4.7653 33.3189,4.7323 L33.0019,4.6123 C32.7729,4.5243 32.5659,4.3833 32.5659,3.0953 L32.5659,2.1673 C32.5659,1.6873 32.5659,1.4903 32.5769,1.3923 C32.5879,1.3053 32.6089,1.2613 32.6419,1.2943 L35.3379,4.5243 C35.3599,4.5573 35.4689,4.6663 35.5999,4.7763 C35.6759,4.8413 35.8069,4.9173 35.8949,4.9173 C35.9599,4.9173 36.0259,4.8963 36.0039,4.7103 C35.9929,4.6233 35.9709,4.1533 35.9709,3.3353 L35.9709,2.5493 C35.9709,1.8293 36.0259,1.2503 36.0799,0.9343 C36.1569,0.5413 36.3639,0.4323 36.6259,0.3233 C36.7349,0.2793 36.7349,0.1813 36.6039,0.1813 C36.3639,0.1813 36.1019,0.2133 35.8179,0.2133 C35.4909,0.2133 35.1739,0.1813 34.8799,0.1813 C34.7699,0.1813 34.7489,0.3013 34.8579,0.3233 C35.3919,0.4643 35.5129,0.5523 35.5669,1.0653 C35.6109,1.4693 35.6439,1.8183 35.6439,2.4943 L35.6439,3.5643 C35.6439,3.6623 35.6219,3.6733 35.5449,3.5973 C34.2899,2.2543 33.3839,1.1633 33.0789,0.7373 C32.8929,0.5193 32.8279,0.3883 32.7949,0.2683 C32.7839,0.2133 32.7509,0.2033 32.5879,0.2133 C32.4569,0.2243 32.3689,0.2243 32.2819,0.2243 C32.0309,0.2243 31.7689,0.1813 31.4629,0.1813 C31.3429,0.1813 31.3429,0.3013 31.4419,0.3233 L31.4419,0.3233 Z M63.2959,4.7763 C63.5029,4.8963 63.7869,4.9723 64.1359,4.9723 C64.4959,4.9723 64.8779,4.8523 65.2169,4.6013 C65.5109,4.3833 65.8929,3.9683 65.8929,3.3573 C65.8929,2.5713 65.3369,2.3313 64.6929,2.1023 C64.2339,1.9383 63.7869,1.7093 63.7869,1.1083 C63.7869,0.6723 64.0599,0.4213 64.4309,0.4213 C64.7359,0.4213 64.9869,0.5303 65.1729,0.7483 C65.3149,0.9123 65.3579,1.0433 65.3699,1.1303 C65.3799,1.2613 65.5219,1.2613 65.5219,1.1413 C65.5219,0.9453 65.5439,0.8033 65.5549,0.7153 C65.5769,0.6283 65.5879,0.5743 65.5879,0.5193 C65.5879,0.4643 65.5769,0.3663 65.4679,0.2903 C65.3699,0.2243 65.1619,0.0833 64.7359,0.0833 C64.2669,0.0833 63.8519,0.3013 63.5899,0.5633 C63.2629,0.8793 63.1759,1.2183 63.1759,1.5013 C63.1759,2.0693 63.5249,2.4183 64.2669,2.6803 C64.8459,2.8883 65.2709,3.1603 65.2709,3.7393 C65.2709,4.2953 64.9759,4.5793 64.4639,4.5793 C64.0379,4.5793 63.5689,4.3173 63.4259,4.0223 C63.3499,3.8593 63.3499,3.7613 63.3499,3.6953 C63.3389,3.5973 63.2409,3.5863 63.2079,3.6623 C63.1649,3.7613 63.0769,4.0013 63.0229,4.0883 C62.9679,4.1643 62.9139,4.2853 62.9359,4.3613 C62.9789,4.5143 63.0989,4.6453 63.2959,4.7763 L63.2959,4.7763 Z M43.1449,0.3233 L43.3309,0.4103 C43.6039,0.5523 43.6799,0.6613 43.9639,1.3593 L44.8149,3.5533 L45.2949,4.8963 C45.3279,4.9833 45.3609,5.0273 45.4149,5.0273 C45.4589,5.0273 45.6009,4.9073 45.7649,4.5903 C45.8409,4.4593 45.9289,4.1973 46.1249,3.7613 L47.0419,1.7093 C47.4559,0.8253 47.6199,0.5633 47.9369,0.4323 L48.1769,0.3233 C48.2749,0.2793 48.2859,0.1813 48.1549,0.1813 C47.9039,0.1813 47.6309,0.2133 47.3579,0.2133 C47.0959,0.2133 46.8229,0.1813 46.5179,0.1813 C46.4089,0.1813 46.3979,0.2903 46.4849,0.3233 L46.6049,0.3663 C46.9429,0.4863 47.0199,0.6173 46.8779,1.0973 C46.7249,1.5893 46.1469,3.0293 45.8079,3.7283 C45.7319,3.8913 45.6989,3.8813 45.6339,3.7283 C45.3059,2.9973 44.9569,2.1343 44.6409,1.2073 C44.4879,0.7483 44.4109,0.5633 44.7059,0.4323 L44.9899,0.3233 C45.0879,0.2903 45.0879,0.1813 44.9569,0.1813 C44.6299,0.1813 44.3129,0.2133 43.9749,0.2133 C43.7129,0.2133 43.5049,0.1813 43.1779,0.1813 C43.0249,0.1813 43.0469,0.2793 43.1449,0.3233 L43.1449,0.3233 Z M50.2189,4.8743 C50.6229,4.8743 50.9069,4.8413 51.2229,4.8413 L53.4819,4.8743 C53.7769,4.8743 53.8429,4.8633 53.8759,4.7213 C53.9409,4.3933 53.9849,3.9793 53.9849,3.8703 C53.9849,3.7823 53.8759,3.7713 53.8429,3.8593 C53.7989,3.9903 53.7339,4.1533 53.6459,4.2633 C53.5369,4.3723 53.4059,4.4483 53.2419,4.4703 C53.0789,4.5033 52.8169,4.5143 52.5549,4.5143 C52.1179,4.5143 51.8779,4.4923 51.8019,4.3723 C51.7259,4.2633 51.7039,3.9903 51.7039,3.2263 L51.7039,2.7133 C51.7039,2.5823 51.7359,2.5713 51.8999,2.5713 L52.2269,2.5713 C52.7949,2.5713 53.0679,2.6363 53.1769,2.8223 C53.2419,2.9423 53.2749,3.0403 53.2859,3.1063 C53.2969,3.1933 53.4169,3.1823 53.4169,3.0953 C53.4169,2.4513 53.4499,2.1783 53.4719,2.0033 C53.4819,1.9273 53.4059,1.9053 53.3729,1.9603 C53.3409,2.0143 53.2529,2.1123 53.1229,2.1563 C53.0239,2.1893 52.7729,2.2223 52.1619,2.2223 L51.9329,2.2223 C51.7039,2.2003 51.7039,2.2113 51.7039,2.0803 L51.7039,1.4903 C51.7039,1.1523 51.7149,0.8573 51.7259,0.7593 C51.7469,0.5843 51.7689,0.5633 51.9979,0.5633 L52.2819,0.5633 C52.6749,0.5633 52.8719,0.5743 53.0899,0.6393 C53.2969,0.6943 53.4609,0.9343 53.5049,1.1743 C53.5259,1.3053 53.6679,1.2833 53.6569,1.1413 C53.6349,0.8683 53.6569,0.4643 53.7119,0.2033 C53.7229,0.1483 53.6899,0.1263 53.6679,0.1263 C53.6569,0.1263 53.6139,0.1373 53.5589,0.1703 C53.4609,0.2033 53.0899,0.2133 52.5109,0.2133 L51.3869,0.2133 C51.0489,0.2133 50.7979,0.1813 50.4379,0.1813 C50.3179,0.1813 50.3069,0.3013 50.4269,0.3343 C50.6989,0.3993 50.9399,0.5193 50.9829,0.8033 C51.0269,1.0763 51.0269,1.2833 51.0269,1.9383 L51.0269,3.1063 C51.0269,3.9463 50.9939,4.1753 50.9719,4.2853 C50.8959,4.5903 50.5579,4.6553 50.1869,4.7323 C50.0989,4.7433 50.0989,4.8743 50.2189,4.8743 L50.2189,4.8743 Z M56.2879,0.3013 C56.4399,0.2793 57.3239,0.1593 58.0229,0.1593 C59.6599,0.1153 59.7359,1.0763 59.7359,1.3923 C59.7359,1.8503 59.4739,2.2003 59.2779,2.3203 L59.0599,2.4623 C59.0049,2.4943 58.9829,2.5273 59.0269,2.6253 C59.3979,3.4003 59.9329,4.0883 60.3149,4.3933 C60.6749,4.6883 60.9589,4.7653 61.0019,4.7763 C61.0459,4.7863 61.0569,4.8523 61.0239,4.8633 C60.9809,4.8853 60.7949,4.9283 60.5659,4.9283 C60.1619,4.9283 59.7469,4.7973 59.4959,4.5793 C59.0919,4.1973 58.8089,3.6843 58.4809,3.0513 C58.3829,2.8443 58.3069,2.8223 58.1869,2.8333 C58.0339,2.8443 57.8589,2.8663 57.6849,2.8663 C57.6299,2.8663 57.6189,2.8883 57.6189,3.0953 L57.6189,3.5533 C57.6189,3.9023 57.6299,4.0223 57.6519,4.1533 C57.7169,4.5033 57.7939,4.6013 58.2739,4.7323 C58.3939,4.7653 58.3939,4.8743 58.2629,4.8743 C57.9679,4.8743 57.6519,4.8413 57.3349,4.8413 C57.0079,4.8413 56.6699,4.8743 56.3639,4.8743 C56.2439,4.8743 56.2219,4.7653 56.3419,4.7323 C56.7569,4.6233 56.8549,4.5353 56.8979,4.2193 C56.9099,4.0663 56.9419,3.7933 56.9419,3.3683 L56.9419,1.6543 C56.9419,1.2613 56.9099,0.9993 56.8979,0.8143 C56.8769,0.6723 56.8439,0.6173 56.8109,0.5743 C56.7349,0.4973 56.4949,0.4643 56.2879,0.4433 C56.1459,0.4323 56.1559,0.3233 56.2879,0.3013 L56.2879,0.3013 Z M57.6189,2.3423 C57.6189,2.4623 57.6299,2.4943 57.7169,2.5053 C57.8589,2.5163 57.9899,2.5163 58.2189,2.5163 C58.5789,2.5163 59.0489,2.3203 59.0489,1.6983 C59.0489,1.0433 58.6119,0.4643 57.8479,0.4643 C57.6959,0.4643 57.6729,0.4973 57.6519,0.5743 C57.6299,0.6393 57.6189,0.7813 57.6189,1.2833 L57.6189,2.3423 Z" id="Fill-1" fill="#FEFEFE" mask="url(#mask-2)"></path>
        </g>
    </g>
</svg>