<?xml version="1.0" encoding="UTF-8"?>
<svg width="146px" height="146px" viewBox="0 0 146 146" version="1.1" xmlns="http://www.w3.org/2000/svg" xmlns:xlink="http://www.w3.org/1999/xlink">
    <!-- Generator: Sketch 43.2 (39069) - http://www.bohemiancoding.com/sketch -->
    <title>Page 1</title>
    <desc>Created with Sketch.</desc>
    <defs></defs>
    <g id="Page-1" stroke="none" stroke-width="1" fill="none" fill-rule="evenodd">
        <g fill="#00AC98">
            <path d="M38.3311,91.0576 C38.4621,90.5216 38.1341,89.9796 37.5981,89.8476 C37.0631,89.7176 36.5191,90.0446 36.3881,90.5806 L35.1301,95.7166 C34.7901,97.2076 35.1301,98.7596 36.0601,99.9726 C36.9921,101.1866 38.4041,101.9156 39.9701,101.9746 L59.5031,101.9996 C60.8521,101.9996 61.8281,101.3346 62.1121,100.2196 C62.4171,99.0296 61.8351,97.5666 60.8111,97.0076 L38.6341,85.9016 C38.6341,85.3806 38.6321,84.8176 38.6301,84.2146 C38.5961,75.2406 38.5241,56.5666 44.1711,44.8666 C47.3471,38.2866 46.3771,21.6776 45.8121,14.8416 C45.7671,14.2916 45.2781,13.8916 44.7331,13.9266 C44.1831,13.9726 43.7731,14.4556 43.8181,15.0056 C44.2491,20.2116 45.4151,37.6886 42.3701,43.9966 C36.5221,56.1136 36.5951,75.0986 36.6301,84.2226 C36.6331,85.0676 36.6361,85.8356 36.6341,86.5156 C36.6331,86.8956 36.8471,87.2436 37.1851,87.4126 L59.8801,98.7776 C60.0351,98.8796 60.2721,99.4026 60.1701,99.7436 C60.1191,99.9126 59.8941,99.9996 59.5041,99.9996 L40.0091,99.9756 C39.0761,99.9406 38.2161,99.4956 37.6471,98.7546 C37.0801,98.0156 36.8731,97.0696 37.0761,96.1766 L38.3311,91.0576 Z" id="Fill-1"></path>
            <path d="M46.7041,87.2461 C46.7861,87.2671 46.8681,87.2761 46.9491,87.2761 C47.3961,87.2761 47.8041,86.9751 47.9181,86.5201 L56.4451,52.6741 C58.1771,49.0441 59.8281,45.9291 61.2861,43.1771 C64.0601,37.9411 66.2531,33.8061 67.3881,29.2411 C67.5201,28.7051 67.1941,28.1631 66.6581,28.0291 C66.1211,27.9001 65.5791,28.2231 65.4461,28.7591 C64.3711,33.0851 62.2291,37.1251 59.5181,42.2401 C58.0391,45.0321 56.3621,48.1961 54.5971,51.9031 C54.5681,51.9631 54.5471,52.0241 54.5301,52.0891 L45.9781,86.0321 C45.8441,86.5671 46.1681,87.1111 46.7041,87.2461" id="Fill-3"></path>
            <path d="M41,130 C41.553,130 42,129.553 42,129 L42,106 L65,106 C65.553,106 66,105.553 66,105 L66,82 L89,82 C89.553,82 90,81.553 90,81 L90,58 L113,58 C113.553,58 114,57.553 114,57 L114,35.414 L120.293,41.707 C120.488,41.902 120.744,42 121,42 C121.256,42 121.512,41.902 121.707,41.707 C122.098,41.316 122.098,40.684 121.707,40.293 L113.708,32.294 C113.616,32.201 113.505,32.128 113.382,32.077 C113.137,31.976 112.862,31.976 112.618,32.077 C112.495,32.128 112.384,32.201 112.292,32.294 L104.293,40.293 C103.902,40.684 103.902,41.316 104.293,41.707 C104.684,42.098 105.316,42.098 105.707,41.707 L112,35.414 L112,56 L89,56 C88.447,56 88,56.447 88,57 L88,80 L65,80 C64.447,80 64,80.447 64,81 L64,104 L41,104 C40.447,104 40,104.447 40,105 L40,128 L28.11,128 C11.516,114.44 2,94.418 2,73 C2,45.281 18.199,20.045 43.341,8.473 C52.205,21.215 72.051,29.04 77.796,31.098 C69.423,39.796 62.201,58.49 61.885,59.318 C61.72,59.749 61.871,60.237 62.251,60.499 L83.703,75.259 C83.794,75.419 83.689,75.895 83.541,76.044 C75.227,75.499 61.604,74.422 60.074,73.822 C59.352,73.539 58.789,72.988 58.491,72.272 C58.192,71.556 58.197,70.768 58.464,70.141 L61.772,64.139 C62.039,63.655 61.863,63.047 61.379,62.78 C60.896,62.515 60.288,62.689 60.02,63.174 L56.67,69.262 C56.145,70.477 56.136,71.819 56.645,73.041 C57.153,74.263 58.112,75.201 59.344,75.684 C61.677,76.598 81.299,77.902 83.594,78.05 C84.554,78.05 85.38,77.287 85.649,76.15 C85.912,75.047 85.548,74.02 84.741,73.566 L64.041,59.304 C65.548,55.547 72.727,38.331 80.328,31.421 C80.592,31.181 80.708,30.818 80.633,30.47 C80.558,30.122 80.303,29.84 79.964,29.729 C79.705,29.645 54.029,21.184 44.529,6.658 C44.258,6.251 43.734,6.102 43.29,6.3 C16.992,18.03 0,44.212 0,73 C0,95.14 9.882,115.834 27.112,129.777 C27.158,129.814 27.211,129.832 27.26,129.86 C27.301,129.883 27.337,129.91 27.382,129.928 C27.498,129.973 27.618,130 27.74,130 L27.741,130 L41,130 Z" id="Fill-5"></path>
            <path d="M73.5576,0.002 C73.3306,-0.011 73.1076,0.05 72.9136,0.189 C72.5146,0.475 72.3826,1.01 72.6026,1.449 C72.6566,1.557 72.7286,1.652 72.8136,1.731 L94.5986,23.74 C97.3126,26.479 97.4686,30.027 95.0686,33.419 L72.7416,60.867 C72.3926,61.296 72.4566,61.926 72.8856,62.273 C73.3156,62.624 73.9456,62.558 74.2916,62.129 L96.6596,34.628 C99.6726,30.376 99.4336,25.779 96.0206,22.333 L75.9526,2.061 C113.6986,3.617 143.9996,34.938 143.9996,73 C143.9996,112.149 112.1496,144 72.9996,144 C58.9606,144 45.3866,139.909 33.7456,132.171 C33.2866,131.865 32.6646,131.989 32.3596,132.45 C32.0536,132.91 32.1786,133.531 32.6386,133.837 C44.6086,141.794 58.5656,146 72.9996,146 C113.2516,146 145.9996,113.252 145.9996,73 C145.9996,33.036 113.5076,0.301 73.5576,0.002" id="Fill-7"></path>
        </g>
    </g>
</svg>