<?xml version="1.0" encoding="UTF-8"?>
<svg width="146px" height="146px" viewBox="0 0 146 146" version="1.1" xmlns="http://www.w3.org/2000/svg" xmlns:xlink="http://www.w3.org/1999/xlink">
    <!-- Generator: Sketch 43.2 (39069) - http://www.bohemiancoding.com/sketch -->
    <title>Page 1</title>
    <desc>Created with Sketch.</desc>
    <defs></defs>
    <g id="Page-1" stroke="none" stroke-width="1" fill="none" fill-rule="evenodd">
        <g fill="#00AC98">
            <path d="M102,6 C123.505,6 141,23.495 141,45 C141,66.505 123.505,84 102,84 C80.495,84 63,66.505 63,45 C63,23.495 80.495,6 102,6 M61,45 C61,67.607 79.393,86 102,86 C124.607,86 143,67.607 143,45 C143,22.393 124.607,4 102,4 C79.393,4 61,22.393 61,45" id="Fill-1"></path>
            <path d="M47,44 C51.963,44 56,48.038 56,53 C56,57.963 51.963,62 47,62 C42.037,62 38,57.963 38,53 C38,48.038 42.037,44 47,44 M47,64 C53.065,64 58,59.065 58,53 C58,46.935 53.065,42 47,42 C40.935,42 36,46.935 36,53 C36,59.065 40.935,64 47,64" id="Fill-3"></path>
            <path d="M36,67 C36,68.102 35.102,69 34,69 C32.897,69 32,68.102 32,67 C32,65.897 32.897,65 34,65 C35.102,65 36,65.897 36,67 M30,67 C30,69.206 31.794,71 34,71 C36.206,71 38,69.206 38,67 C38,64.794 36.206,63 34,63 C31.794,63 30,64.794 30,67" id="Fill-5"></path>
            <path d="M102,14 C119.094,14 133,27.907 133,45 C133,62.094 119.094,76 102,76 C84.906,76 71,62.094 71,45 C71,27.907 84.906,14 102,14 M102,78 C120.196,78 135,63.196 135,45 C135,26.804 120.196,12 102,12 C83.804,12 69,26.804 69,45 C69,63.196 83.804,78 102,78" id="Fill-7"></path>
            <path d="M102,22 C114.683,22 125,32.318 125,45 C125,57.683 114.683,68 102,68 C89.317,68 79,57.683 79,45 C79,32.318 89.317,22 102,22 M102,70 C115.785,70 127,58.785 127,45 C127,31.215 115.785,20 102,20 C88.215,20 77,31.215 77,45 C77,58.785 88.215,70 102,70" id="Fill-9"></path>
            <path d="M102,30 C110.271,30 117,36.729 117,45 C117,53.271 110.271,60 102,60 C93.729,60 87,53.271 87,45 C87,36.729 93.729,30 102,30 M102,62 C111.374,62 119,54.374 119,45 C119,35.626 111.374,28 102,28 C92.626,28 85,35.626 85,45 C85,54.374 92.626,62 102,62" id="Fill-11"></path>
            <path d="M102,38 C105.859,38 109,41.14 109,45 C109,48.86 105.859,52 102,52 C98.141,52 95,48.86 95,45 C95,41.14 98.141,38 102,38 M102,54 C106.963,54 111,49.962 111,45 C111,40.038 106.963,36 102,36 C97.037,36 93,40.038 93,45 C93,49.962 97.037,54 102,54" id="Fill-13"></path>
            <path d="M144.6494,58.9521 C144.5444,58.4101 144.0164,58.0561 143.4764,58.1621 C142.9344,58.2671 142.5814,58.7931 142.6864,59.3351 C143.5574,63.8061 144.0004,68.4041 144.0004,73.0001 C144.0004,112.1491 112.1494,144.0001 73.0004,144.0001 C64.0334,144.0001 55.3014,142.3531 47.0394,139.1041 L47.0394,130.1401 C51.9184,130.5571 55.1864,129.8981 57.2954,128.1031 C60.0754,125.7351 60.2634,121.8391 60.4644,117.7141 C60.4854,117.2671 60.5064,116.8161 60.5324,116.3621 L63.4204,114.4471 C63.9264,114.1101 64.2504,113.5701 64.3054,112.9661 C64.3614,112.3611 64.1424,111.7721 63.7074,111.3491 C62.3344,110.0151 60.0104,107.0841 59.8824,102.4471 C59.6044,92.4371 55.8574,88.5731 55.6984,88.4141 C55.4404,88.1551 55.0614,88.0561 54.7134,88.1591 C54.3634,88.2601 54.0954,88.5431 54.0144,88.8981 C53.9754,89.0721 49.9844,106.0471 38.2094,106.5311 C37.4994,105.5731 35.7234,103.5561 33.3644,103.5561 C31.7404,103.5561 30.4654,104.0181 29.5764,104.9311 C28.6764,105.8531 28.2414,107.1551 28.2844,108.8631 C28.2904,115.2231 34.1974,118.6531 36.6104,118.6531 C37.1634,118.6531 37.6104,118.2061 37.6104,117.6531 C37.6104,117.1001 37.1634,116.6531 36.6104,116.6531 C35.3604,116.6531 30.2894,114.1471 30.2844,108.8601 C30.2844,108.8521 30.2824,108.7571 30.2824,108.7501 C30.2554,107.6641 30.4994,106.8491 31.0084,106.3271 C31.5074,105.8151 32.2994,105.5561 33.3644,105.5561 C34.9434,105.5561 36.4084,107.3671 36.8384,108.0631 C37.0194,108.3601 37.3424,108.5421 37.6914,108.5421 C43.4294,108.5421 48.4204,105.1851 52.1234,98.8351 C53.7524,96.0411 54.7894,93.2711 55.3704,91.4501 C56.3724,93.2941 57.7244,96.8061 57.8824,102.5021 C58.0314,107.8461 60.7214,111.2371 62.3134,112.7811 L59.0104,114.9721 C58.7504,115.1441 58.5854,115.4311 58.5654,115.7431 C58.5264,116.3751 58.4964,117.0011 58.4654,117.6171 C58.2804,121.4571 58.1204,124.7741 55.9984,126.5811 C54.2074,128.1061 50.9804,128.5841 46.1504,128.0431 C45.8694,128.0151 45.5854,128.1011 45.3724,128.2921 C45.1604,128.4811 45.0394,128.7531 45.0394,129.0371 L45.0394,139.7821 C45.0394,140.1891 45.2864,140.5561 45.6644,140.7091 C54.3514,144.2201 63.5484,146.0001 73.0004,146.0001 C113.2524,146.0001 146.0004,113.2521 146.0004,73.0001 C146.0004,68.2761 145.5464,63.5501 144.6494,58.9521" id="Fill-15"></path>
            <path d="M26.8008,126.915 C23.6218,124.061 14.3468,114.358 14.3468,98.388 C14.3468,80.131 32.6588,76.133 39.7148,76.133 C60.5448,76.133 62.1638,86.722 62.1638,89.967 C62.1638,91.699 61.7988,93.019 61.0778,93.887 C60.7258,94.311 60.7838,94.942 61.2088,95.295 C61.6348,95.649 62.2668,95.589 62.6168,95.164 C63.6438,93.927 64.1638,92.179 64.1638,89.967 C64.1638,86.252 62.4018,74.133 39.7148,74.133 C32.1028,74.133 12.3468,78.49 12.3468,98.388 C12.3468,105.048 13.8368,110.64 15.8568,115.16 C6.9228,103.077 1.9998,88.379 1.9998,73 C1.9998,33.851 33.8508,2 72.9998,2 C78.4368,2 83.8538,2.617 89.1008,3.833 C89.6388,3.957 90.1758,3.623 90.3008,3.084 C90.4248,2.547 90.0898,2.009 89.5518,1.885 C84.1568,0.634 78.5878,0 72.9998,0 C32.7478,0 -0.0002,32.748 -0.0002,73 C-0.0002,94.119 9.0278,113.985 24.8868,127.899 C25.8758,128.818 26.5458,129.322 26.6658,129.411 C26.8438,129.542 27.0508,129.606 27.2568,129.606 C27.5548,129.606 27.8498,129.473 28.0458,129.22 C28.3798,128.793 28.3098,128.176 27.8918,127.832 C27.5258,127.529 27.1608,127.224 26.8008,126.915" id="Fill-17"></path>
        </g>
    </g>
</svg>