<?xml version="1.0" encoding="UTF-8"?>
<svg width="106px" height="80px" viewBox="0 0 106 80" version="1.1" xmlns="http://www.w3.org/2000/svg" xmlns:xlink="http://www.w3.org/1999/xlink">
    <!-- Generator: Sketch 43.2 (39069) - http://www.bohemiancoding.com/sketch -->
    <title>Page 1</title>
    <desc>Created with Sketch.</desc>
    <defs></defs>
    <g id="Page-1" stroke="none" stroke-width="1" fill="none" fill-rule="evenodd">
        <g>
            <polygon id="Fill-1" fill="#E2231A" points="0 80 105.054 80 105.054 0 0 0"></polygon>
            <path d="M52.3773,29.7257 L51.4223,32.8447 C51.3653,32.9847 51.2813,33.0407 51.1413,33.0407 C50.9723,33.0407 50.8603,32.9287 50.8603,32.7597 C50.8603,32.6197 50.8873,32.4227 50.8873,32.2817 C50.8873,30.4557 49.7923,29.5857 48.3593,29.5857 C45.6053,29.5857 42.3743,34.1647 42.3743,37.7337 C42.3743,39.2217 42.9923,40.2617 44.3693,40.2617 C46.1393,40.2617 48.3303,39.0817 49.2303,37.5647 C49.3703,37.3407 49.4833,37.2557 49.6523,37.2557 C49.8203,37.2557 49.9603,37.3957 49.8483,37.6767 L48.6683,41.1057 C48.6113,41.2177 48.4993,41.2447 48.3883,41.2447 C48.2753,41.2447 48.1623,41.1597 48.1623,40.9917 C48.1343,40.5147 48.1073,40.1487 47.8263,40.1487 C47.6003,40.1487 47.3193,40.2617 47.0393,40.3747 C45.8303,40.8797 45.0443,41.0477 44.1733,41.0477 C42.0933,41.0477 40.6613,39.6997 40.6613,37.3407 C40.6613,33.2377 44.2853,28.8267 48.4433,28.8267 C49.3423,28.8267 50.3543,29.0787 51.1413,29.9777 C51.2253,30.0627 51.2813,30.0907 51.3943,30.0907 C51.5623,30.0907 51.7873,29.7537 51.9563,29.5277 C52.0683,29.3597 52.1243,29.3317 52.2093,29.3317 C52.3773,29.3317 52.4613,29.4727 52.3773,29.7257 L52.3773,29.7257 Z M51.8443,38.3237 C51.8443,35.0917 54.0913,31.8887 56.7603,31.8887 C58.1653,31.8887 58.8963,33.0687 58.8963,34.5017 C58.8963,37.4517 56.6483,40.9357 53.9513,40.9357 C52.5743,40.9357 51.8443,39.7557 51.8443,38.3237 L51.8443,38.3237 Z M52.9673,38.9977 C52.9673,39.7277 53.2473,40.1777 53.8943,40.1777 C55.5233,40.1777 57.7723,36.0187 57.7723,33.8267 C57.7723,33.0967 57.4913,32.5917 56.8453,32.5917 C55.2153,32.5917 52.9673,36.6097 52.9673,38.9977 L52.9673,38.9977 Z M62.4643,29.2477 C62.4643,29.3887 62.5773,29.4727 62.7173,29.4727 C62.9423,29.5007 63.3083,29.5277 63.5033,29.5857 C63.5883,29.6127 63.6163,29.6697 63.6163,29.7257 C63.6163,29.7817 63.5883,29.8937 63.5313,30.0057 C62.0993,33.3217 60.7223,36.4407 59.3453,39.7567 C59.2623,39.9527 59.1483,40.2617 59.1483,40.4867 C59.1483,40.7397 59.3743,40.9917 59.6823,40.9917 C59.8793,40.9917 60.1323,40.9637 60.3573,40.8797 C61.2273,40.5717 61.9303,40.0937 62.5203,39.3907 C62.5773,39.3337 62.6333,39.2507 62.6333,39.1377 C62.6333,38.9977 62.5773,38.9137 62.4643,38.9137 C62.4073,38.9137 62.3523,38.9417 62.2673,38.9977 C61.9863,39.1947 61.6213,39.5597 61.0033,39.8967 C60.9473,39.9247 60.8343,39.9807 60.7783,39.9807 C60.7223,39.9807 60.6943,39.9527 60.6943,39.8967 C60.6943,39.8127 60.7223,39.7567 60.7503,39.6717 L65.1893,29.4167 C65.2743,29.2197 65.3023,29.1077 65.3023,28.9947 C65.3023,28.8827 65.2183,28.8267 65.0773,28.8267 C64.8523,28.8267 64.4313,28.8547 64.0943,28.8827 C63.8133,28.9107 63.1663,28.9387 62.7453,28.9947 C62.5773,29.0227 62.4643,29.1357 62.4643,29.2477 L62.4643,29.2477 Z M67.1293,39.3907 C67.1843,39.3337 67.2403,39.2507 67.2403,39.1377 C67.2403,38.9977 67.1843,38.9137 67.0723,38.9137 C67.0163,38.9137 66.9603,38.9417 66.8763,38.9977 C66.5953,39.1947 66.2293,39.5597 65.6113,39.8967 C65.5543,39.9247 65.4423,39.9807 65.3863,39.9807 C65.3303,39.9807 65.3023,39.9527 65.3023,39.8967 C65.3023,39.8127 65.3303,39.7567 65.3583,39.6717 L69.7973,29.4167 C69.8823,29.2197 69.9103,29.1077 69.9103,28.9947 C69.9103,28.8827 69.8263,28.8267 69.6853,28.8267 C69.4603,28.8267 69.0393,28.8547 68.7023,28.8827 C68.4203,28.9107 67.7753,28.9387 67.3533,28.9947 C67.1843,29.0227 67.0723,29.1357 67.0723,29.2477 C67.0723,29.3887 67.1843,29.4727 67.3253,29.4727 C67.5493,29.5007 67.9153,29.5277 68.1123,29.5857 C68.1963,29.6127 68.2243,29.6697 68.2243,29.7257 C68.2243,29.7817 68.1963,29.8937 68.1403,30.0057 C66.7073,33.3217 65.3303,36.4407 63.9533,39.7567 C63.8693,39.9527 63.7573,40.2617 63.7573,40.4867 C63.7573,40.7397 63.9823,40.9917 64.2903,40.9917 C64.4883,40.9917 64.7403,40.9637 64.9653,40.8797 C65.8363,40.5717 66.5383,40.0937 67.1293,39.3907 L67.1293,39.3907 Z M70.7813,36.9187 C70.5843,37.3687 70.3593,37.9577 70.3593,38.5757 C70.3593,39.4467 70.7813,39.9807 71.5113,39.9807 C72.4953,39.9807 73.3103,39.2217 73.8723,38.6317 C73.9273,38.5757 74.0123,38.5197 74.0963,38.5197 C74.2373,38.5197 74.3493,38.6317 74.3493,38.7717 C74.3493,38.8857 74.2933,38.9687 74.2373,39.0527 C73.3663,40.1487 72.3543,40.9367 70.7813,40.9367 C69.6293,40.9367 68.8703,40.1217 68.8703,38.9687 C68.8703,35.5977 72.3273,32.1137 74.8563,32.1137 C75.7263,32.1137 76.3443,32.5077 76.3443,33.3777 C76.3443,34.6697 75.2763,35.7107 73.2253,36.3557 C72.6073,36.5537 71.4003,36.8067 70.7813,36.9187 L70.7813,36.9187 Z M71.1183,36.2157 C71.5963,36.1597 72.3273,35.9627 73.1133,35.7107 C74.2643,35.3447 75.1083,34.5307 75.1083,33.5467 C75.1083,33.0687 74.8833,32.8157 74.4623,32.8157 C73.8723,32.8157 73.2533,33.3217 72.8883,33.7157 C72.2423,34.3617 71.6523,35.1477 71.1183,36.2157 L71.1183,36.2157 Z M85.8973,36.9187 C85.7013,37.3687 85.4763,37.9577 85.4763,38.5757 C85.4763,39.4467 85.8973,39.9807 86.6273,39.9807 C87.6123,39.9807 88.4273,39.2217 88.9883,38.6317 C89.0443,38.5757 89.1293,38.5197 89.2133,38.5197 C89.3543,38.5197 89.4663,38.6317 89.4663,38.7717 C89.4663,38.8857 89.4093,38.9687 89.3543,39.0527 C88.4823,40.1487 87.4703,40.9367 85.8973,40.9367 C84.7173,40.9367 83.9873,40.1217 83.9873,38.9687 C83.9873,35.5977 87.4423,32.1137 89.9723,32.1137 C90.8423,32.1137 91.4613,32.5077 91.4613,33.3777 C91.4613,34.6697 90.3923,35.7107 88.3433,36.3557 C87.7233,36.5537 86.5163,36.8067 85.8973,36.9187 L85.8973,36.9187 Z M86.2353,36.2157 C86.7123,36.1597 87.4423,35.9627 88.2293,35.7107 C89.3813,35.3447 90.2243,34.5307 90.2243,33.5467 C90.2243,33.0687 90.0003,32.8157 89.5773,32.8157 C88.9883,32.8157 88.3703,33.3217 88.0043,33.7157 C87.3583,34.3617 86.7693,35.1477 86.2353,36.2157 L86.2353,36.2157 Z M78.5353,33.6027 C79.3223,32.5357 80.5303,32.0577 81.4583,32.0577 C82.1603,32.0577 82.5263,32.1977 82.8633,32.3937 C82.9473,32.4507 83.0593,32.4787 83.1163,32.4787 C83.2563,32.4787 83.3683,32.3937 83.4813,32.3387 C83.9313,32.0577 84.3513,31.9447 84.7173,31.9447 C85.1103,31.9447 85.3633,32.1137 85.3633,32.4507 C85.3633,32.7887 85.1393,33.0127 84.8583,33.0127 C84.5213,33.0127 84.2403,32.7317 83.8753,32.7317 C83.5373,32.7317 83.3123,32.8727 83.3123,33.0687 C83.3123,33.2657 83.3963,33.4627 83.3963,33.9677 C83.3963,34.4467 83.2843,34.9517 83.0593,35.4577 C82.2173,37.2547 80.8403,37.5647 79.8293,37.5647 C79.4913,37.5647 79.0413,37.4517 78.7043,37.4517 C78.0873,37.4517 77.7493,37.6487 77.7493,38.0707 C77.7493,38.5477 78.6203,38.9687 79.8843,39.5877 C81.1213,40.2057 81.8233,40.8797 81.8233,41.6387 C81.8233,43.0437 80.3343,43.9417 78.1993,43.9417 C75.9793,43.9417 74.4893,43.0437 74.4893,41.8637 C74.4893,40.6547 76.2603,39.9527 77.3273,39.6727 C76.7383,39.2507 76.4293,38.9137 76.4293,38.3517 C76.4293,37.6197 77.1883,37.2267 77.7773,37.0867 C78.1143,37.0027 78.2833,36.9457 78.2833,36.8347 C78.2833,36.7777 78.1993,36.6927 78.1703,36.6377 C78.0303,36.3847 77.8623,35.9627 77.8623,35.4577 C77.8623,34.8957 77.9743,34.3887 78.5353,33.6027 L78.5353,33.6027 Z M75.9223,41.8917 C75.9223,42.6217 76.7943,43.2967 78.3113,43.2967 C79.5473,43.2967 80.3343,42.7617 80.3343,42.0037 C80.3343,41.5827 80.1943,41.3297 79.4073,40.8517 C78.9293,40.5707 78.3113,40.2897 77.8903,40.0647 C76.9063,40.4017 75.9223,41.0207 75.9223,41.8917 L75.9223,41.8917 Z M79.0143,35.9347 C79.0143,36.5247 79.2383,36.9187 79.6873,36.9187 C80.2783,36.9187 80.9243,36.6377 81.7113,35.3167 C82.1333,34.5577 82.3013,33.8837 82.3013,33.3507 C82.3013,32.8437 82.0203,32.5627 81.5703,32.5627 C80.8683,32.5627 80.1373,33.1527 79.5753,34.1647 C79.1823,34.8677 79.0143,35.4577 79.0143,35.9347 L79.0143,35.9347 Z M13.8293,63.4937 L91.1873,63.4937 L91.1873,62.4747 L13.8293,62.4747 L13.8293,63.4937 Z M13.8293,68.0737 L91.1873,68.0737 L91.1873,66.0947 L13.8293,66.0947 L13.8293,68.0737 Z M71.3963,26.8117 C74.5343,26.8117 76.4853,25.2567 76.9943,24.8327 L76.9943,22.2597 C76.9943,21.0997 77.8433,20.9867 78.5773,20.9307 C78.7183,20.9307 78.8033,20.7897 78.8033,20.6197 C78.8033,20.4777 78.7183,20.3657 78.5213,20.3657 L72.8093,20.3657 C72.6123,20.3657 72.4693,20.4777 72.4693,20.6477 C72.4693,20.8457 72.6123,20.9867 72.8093,20.9867 C73.9413,21.0717 74.8453,21.2697 74.8453,22.3727 L74.8453,24.0977 C74.8453,24.5777 74.6753,24.8327 74.3923,25.0587 C73.3463,25.8217 72.2723,25.9347 71.3963,25.9347 C67.8323,25.9347 66.2223,22.9657 66.2223,19.9417 C66.2223,15.8697 68.7943,13.6927 71.6223,13.6927 C74.2223,13.6927 75.9193,14.8237 76.8803,16.7747 C76.9943,17.0007 77.1073,17.0847 77.2773,17.0847 C77.4183,17.0847 77.5313,16.9437 77.5313,16.7747 L77.5313,13.7207 C77.5313,13.5517 77.4183,13.4377 77.2773,13.4377 C77.1073,13.4377 77.0223,13.5517 76.9653,13.7207 C76.8803,14.0607 76.7103,14.2867 76.4563,14.2867 C76.2863,14.2867 76.0323,14.1447 75.8633,14.0317 C74.7033,13.3527 73.7133,12.8437 71.6223,12.8437 C68.1723,12.8437 63.8743,14.7387 63.8743,19.8567 C63.8743,25.1717 67.8893,26.8117 71.3963,26.8117 L71.3963,26.8117 Z M80.4723,14.9647 C80.6973,14.9647 80.9813,14.8527 81.0653,14.6257 C81.0933,14.6827 81.1223,14.7677 81.1223,14.8527 C81.1223,15.4167 80.6693,15.9547 79.9063,16.2657 C79.7933,16.3217 79.7093,16.4067 79.7093,16.5477 C79.7093,16.6897 79.8493,16.7737 80.0193,16.7467 C81.2633,16.5197 81.9413,15.3887 81.9413,14.3147 C81.9413,13.3537 81.4053,12.8447 80.6423,12.8447 C80.1333,12.8447 79.4543,13.0987 79.4543,13.9467 C79.4543,14.6257 79.9633,14.9647 80.4723,14.9647 L80.4723,14.9647 Z M83.1293,26.5287 C83.2423,26.5287 83.3263,26.4727 83.4123,26.3317 C83.4963,26.1337 83.6663,25.8227 83.9493,25.8227 C84.5153,25.8227 85.6173,26.8117 87.6253,26.8117 C89.5193,26.8117 92.4033,26.1047 92.4033,22.6837 C92.4033,21.2697 91.8383,19.4327 88.3873,18.4427 C85.9573,17.7357 85.1933,16.8597 85.1933,15.6437 C85.1933,14.5687 85.9283,13.6927 87.5123,13.6927 C88.6713,13.6927 89.8873,14.2297 90.7353,15.9827 C90.8203,16.1517 90.9053,16.2087 91.0183,16.2087 C91.1603,16.2087 91.2723,16.0957 91.2443,15.9257 L90.8203,12.9577 C90.7913,12.7597 90.7063,12.7027 90.5653,12.7027 C90.4803,12.7027 90.3963,12.7597 90.3403,12.9007 C90.2543,13.1277 90.1133,13.3537 89.8313,13.3537 C89.3503,13.3537 88.7273,12.8447 87.3703,12.8447 C85.6173,12.8447 83.2993,13.7487 83.2993,16.1807 C83.2993,18.7247 85.3353,19.6297 87.0883,20.2517 C89.0103,20.9307 90.4243,21.3837 90.4243,23.3057 C90.4243,25.1997 88.9543,25.9077 87.4833,25.9077 C85.9283,25.9077 84.1753,25.1717 83.4963,22.8807 C83.4403,22.6837 83.3553,22.5707 83.1573,22.5707 C82.9603,22.5707 82.8473,22.6837 82.8473,22.9377 L82.8473,26.2177 C82.8473,26.4167 82.9603,26.5287 83.1293,26.5287 L83.1293,26.5287 Z M39.9263,26.2187 C39.7273,26.2457 39.6153,26.3307 39.6153,26.5007 C39.6153,26.6417 39.7273,26.7267 39.9263,26.7267 L44.9023,26.7267 C45.1003,26.7267 45.2133,26.6417 45.2133,26.5007 C45.2133,26.3307 45.1003,26.2457 44.9023,26.2187 C43.8283,26.0757 43.5173,25.5397 43.5173,24.4647 L43.5173,15.1907 C43.5173,14.1167 43.8283,13.5797 44.9023,13.4377 C45.1003,13.4107 45.2133,13.3257 45.2133,13.1557 C45.2133,13.0137 45.1003,12.9297 44.9023,12.9297 L39.9263,12.9297 C39.7273,12.9297 39.6153,13.0137 39.6153,13.1557 C39.6153,13.3257 39.7273,13.4107 39.9263,13.4377 C41.0003,13.5797 41.3113,14.1167 41.3113,15.1907 L41.3113,24.4647 C41.3113,25.5397 41.0003,26.0757 39.9263,26.2187 L39.9263,26.2187 Z M47.3903,26.7267 L51.6603,26.7267 C51.7733,26.7267 51.8583,26.6137 51.8583,26.4727 C51.8583,26.3597 51.7733,26.2457 51.6323,26.2187 C50.7273,26.0757 50.0763,25.8797 49.9633,24.2107 C49.8503,22.2597 49.7933,15.1347 49.7933,15.1347 L60.1993,26.7267 L60.8483,26.7267 C60.8483,26.7267 60.8483,18.4427 60.9623,15.4457 C61.0183,14.0607 61.2733,13.5797 62.3473,13.4377 C62.5453,13.4107 62.6593,13.3257 62.6593,13.1557 C62.6593,13.0137 62.5453,12.9297 62.3473,12.9297 L58.0793,12.9297 C57.9653,12.9297 57.8803,13.0417 57.8803,13.1837 C57.8803,13.2967 57.9653,13.4107 58.1073,13.4377 C59.0113,13.5797 59.6613,13.7767 59.7753,15.4457 C59.9163,17.3967 59.9453,22.9097 59.9453,22.9097 L51.0383,12.9297 L47.5043,12.9297 C47.3053,12.9297 47.1933,13.0137 47.1933,13.1557 C47.1933,13.3257 47.3053,13.4107 47.5043,13.4377 C48.0983,13.5227 48.8883,13.8057 48.8883,14.7387 C48.8883,17.5377 48.8883,21.2137 48.7763,24.2107 C48.7193,25.5957 48.4643,26.0757 47.3903,26.2187 C47.1933,26.2457 47.0793,26.3307 47.0793,26.5007 C47.0793,26.6417 47.1933,26.7267 47.3903,26.7267 L47.3903,26.7267 Z M23.9223,40.8077 C24.1773,40.8077 24.3463,40.6387 24.3463,40.4117 C24.3463,40.1297 24.1773,39.9877 23.8663,39.9307 C20.7843,39.5067 20.3033,38.1777 20.1633,36.5947 C20.1053,35.9167 20.0493,34.1917 20.0493,32.3817 C20.0493,30.5727 20.0783,28.8187 20.1053,28.4517 C20.1333,28.0277 20.3603,27.8857 20.5873,27.8857 C20.7843,27.8857 20.9823,27.9707 21.1233,28.0847 C23.0463,29.6957 28.9563,36.7367 32.3203,40.8077 L39.5023,40.8077 C39.7853,40.8077 39.8973,40.6657 39.8973,40.4397 C39.8973,40.1857 39.7273,39.9877 39.5023,39.9877 C38.1453,39.8457 37.2963,39.5907 35.6003,38.2347 C33.8473,36.8487 24.0073,25.0867 24.0073,25.0867 C24.7713,24.2107 29.2953,19.6017 31.8963,17.2547 C34.9503,14.4847 36.1373,14.1167 37.4383,13.8057 C37.6353,13.7487 37.7773,13.6357 37.7773,13.3817 C37.7773,13.1267 37.6073,12.9287 37.2113,12.9287 C36.5343,12.9287 34.4973,13.0137 33.1973,13.0137 C30.9353,13.0137 29.0683,12.9287 28.6733,12.9287 C28.3333,12.9287 28.0793,13.0987 28.0793,13.3817 C28.0793,13.6357 28.3053,13.8057 28.6163,13.8617 C29.0683,13.9467 29.4643,14.0037 29.9173,14.1727 C30.3693,14.3427 30.6243,14.5407 30.6243,15.0217 C30.6243,15.4737 30.4263,15.8697 30.1713,16.2657 C29.5493,17.2267 28.8423,18.1037 27.7123,19.2917 C25.0253,22.0607 21.7183,25.3417 20.6143,26.2467 C20.5023,26.3307 20.4173,26.3597 20.3323,26.3597 C20.1633,26.3597 20.1053,26.1617 20.1053,25.9637 C20.1053,25.7377 20.1333,20.5917 20.1903,17.1417 C20.2183,15.5587 20.4733,14.2297 23.5553,13.8057 C23.8663,13.7487 24.0363,13.6077 24.0363,13.3247 C24.0363,13.0987 23.8663,12.9287 23.6113,12.9287 C21.6893,13.0137 20.8413,13.0137 18.4663,13.0137 C16.4303,13.0137 13.8293,12.9287 13.4333,12.9287 C13.0943,12.9287 12.8953,13.0707 12.8953,13.3247 C12.8953,13.5517 13.0653,13.7207 13.3763,13.7487 C14.4793,13.9187 16.1763,14.1727 16.2883,17.3677 C16.3173,18.3577 16.3463,23.2497 16.3463,28.5647 C16.3463,31.9857 16.3173,34.9827 16.2613,36.3677 C16.1473,39.5647 14.4503,39.8187 13.3483,39.9877 C13.0373,40.0157 12.8673,40.1857 12.8673,40.4117 C12.8673,40.6657 13.0653,40.8077 13.4053,40.8077 C13.8003,40.8077 16.4013,40.7227 18.4373,40.7227 C20.8123,40.7227 22.0003,40.7227 23.9223,40.8077 L23.9223,40.8077 Z M23.8383,58.2057 L24.4593,54.8697 C24.5173,54.6427 24.4033,54.5017 24.2343,54.5017 C24.0933,54.5017 23.9803,54.5867 23.9233,54.7277 C23.0463,57.1597 21.6613,57.4427 19.5973,57.4427 C17.5043,57.4427 17.0523,57.1027 17.0523,56.1417 L17.0523,47.9977 C17.0523,47.0377 17.8723,46.7827 18.4663,46.7547 C18.6363,46.7267 18.7203,46.6417 18.7203,46.5287 C18.7203,46.3877 18.6073,46.2747 18.4383,46.2747 L13.8573,46.2747 C13.7443,46.2747 13.6593,46.3597 13.6593,46.4997 C13.6593,46.6137 13.7723,46.7267 13.9133,46.7267 C14.8473,46.7827 15.1863,47.4057 15.1863,48.3097 L15.1863,56.1697 C15.1863,57.0747 14.8473,57.6697 13.9133,57.7527 C13.7723,57.7527 13.6593,57.8657 13.6593,57.9797 C13.6593,58.1207 13.7443,58.2057 13.8573,58.2057 L23.8383,58.2057 Z M31.2743,46.1897 C34.8363,46.1897 37.2683,48.8477 37.2683,52.1267 C37.2683,55.8587 34.7803,58.2907 31.2743,58.2907 C27.6833,58.2907 25.3373,55.6327 25.3373,52.1267 C25.3373,48.9037 27.8253,46.1897 31.2743,46.1897 L31.2743,46.1897 Z M31.2743,46.9527 C28.7583,46.9527 27.3443,49.1867 27.3443,52.1267 C27.3443,55.2657 28.9283,57.5267 31.2743,57.5267 C33.6773,57.5267 35.2603,55.8867 35.2603,52.1267 C35.2603,49.0737 33.5073,46.9527 31.2743,46.9527 L31.2743,46.9527 Z M49.9353,58.2057 L49.9913,48.3097 C49.9913,47.4057 50.3303,46.8677 51.2643,46.7267 C51.4343,46.6987 51.5183,46.6137 51.5183,46.4997 C51.5183,46.3597 51.4343,46.2747 51.3203,46.2747 L47.5883,46.2747 C47.4473,46.2747 47.3623,46.3597 47.3623,46.4997 C47.3623,46.6137 47.4473,46.6987 47.6173,46.7267 C48.5503,46.8957 49.0023,47.1787 49.0303,48.3097 L49.1723,55.0957 L41.6513,46.2747 L38.4563,46.2747 C38.3153,46.2747 38.2303,46.3597 38.2303,46.4997 C38.2303,46.6417 38.3153,46.7267 38.4843,46.7547 C39.2753,46.8677 39.6433,47.1217 39.6433,47.8857 L39.5863,56.1707 C39.5863,57.0747 39.2483,57.6117 38.3153,57.7527 C38.1453,57.7807 38.0603,57.8657 38.0603,57.9807 C38.0603,58.1207 38.1163,58.2057 38.2583,58.2057 L41.9903,58.2057 C42.1323,58.2057 42.2173,58.1207 42.2173,57.9807 C42.2173,57.8657 42.1323,57.7807 41.9623,57.7527 C41.3123,57.6407 40.5763,57.4707 40.5483,56.1707 L40.4633,47.8287 L49.2853,58.2057 L49.9353,58.2057 Z M54.0063,56.1707 L54.0063,48.3097 C54.0063,47.4057 53.6673,46.8107 52.7353,46.7267 C52.5933,46.7267 52.4803,46.6417 52.4803,46.4997 C52.4803,46.3597 52.5653,46.2747 52.6783,46.2747 L58.3613,46.2747 C61.7543,46.2747 65.0343,47.8567 65.0343,52.1267 C65.0343,56.9337 60.9063,58.2057 58.4183,58.2057 L52.6783,58.2057 C52.5653,58.2057 52.4803,58.1207 52.4803,57.9807 C52.4803,57.8657 52.5653,57.7807 52.7353,57.7527 C53.6673,57.6697 54.0063,57.0747 54.0063,56.1707 L54.0063,56.1707 Z M55.9013,55.7747 C55.9013,57.2167 56.6643,57.4417 57.4553,57.4417 L58.0793,57.4417 C60.8783,57.4417 63.0263,55.8307 63.0263,52.0697 C63.0263,48.2527 60.4823,47.0377 57.9653,47.0377 C56.4663,47.0377 55.9013,47.1227 55.9013,48.1967 L55.9013,55.7747 Z M66.6173,52.1267 C66.6173,48.9037 69.1053,46.1897 72.5553,46.1897 C76.1173,46.1897 78.5493,48.8477 78.5493,52.1267 C78.5493,55.8587 76.0603,58.2907 72.5553,58.2907 C68.9643,58.2907 66.6173,55.6327 66.6173,52.1267 L66.6173,52.1267 Z M68.6243,52.1267 C68.6243,55.2657 70.2083,57.5267 72.5553,57.5267 C74.9583,57.5267 76.5413,55.8867 76.5413,52.1267 C76.5413,49.0737 74.7883,46.9527 72.5553,46.9527 C70.0393,46.9527 68.6243,49.1867 68.6243,52.1267 L68.6243,52.1267 Z M92.5723,46.2747 L88.8403,46.2747 C88.6993,46.2747 88.6153,46.3597 88.6153,46.4997 C88.6153,46.6137 88.6993,46.6987 88.8693,46.7267 C89.8033,46.8957 90.2543,47.1787 90.2823,48.3097 L90.4243,55.0957 L82.9033,46.2747 L79.7083,46.2747 C79.5663,46.2747 79.4823,46.3597 79.4823,46.4997 C79.4823,46.6417 79.5663,46.7267 79.7363,46.7547 C80.5273,46.8677 80.8963,47.1217 80.8963,47.8857 L80.8393,56.1707 C80.8393,57.0747 80.5003,57.6117 79.5663,57.7527 C79.3963,57.7807 79.3123,57.8657 79.3123,57.9807 C79.3123,58.1207 79.3683,58.2057 79.5103,58.2057 L83.2423,58.2057 C83.3843,58.2057 83.4683,58.1207 83.4683,57.9807 C83.4683,57.8657 83.3843,57.7807 83.2143,57.7527 C82.5633,57.6407 81.8293,57.4707 81.8003,56.1707 L81.7153,47.8287 L90.5373,58.2057 L91.1873,58.2057 L91.2433,48.3097 C91.2433,47.4057 91.5833,46.8677 92.5163,46.7267 C92.6863,46.6987 92.7713,46.6137 92.7713,46.4997 C92.7713,46.3597 92.6863,46.2747 92.5723,46.2747 L92.5723,46.2747 Z" id="Fill-2" fill="#FEFEFE"></path>
        </g>
    </g>
</svg>