<?xml version="1.0" encoding="UTF-8"?>
<svg width="70px" height="48px" viewBox="0 0 70 48" version="1.1" xmlns="http://www.w3.org/2000/svg" xmlns:xlink="http://www.w3.org/1999/xlink">
    <!-- Generator: Sketch 43.2 (39069) - http://www.bohemiancoding.com/sketch -->
    <title>Page 1</title>
    <desc>Created with Sketch.</desc>
    <defs></defs>
    <g id="Page-1" stroke="none" stroke-width="1" fill="none" fill-rule="evenodd">
        <path d="M34.25,14.757 L33.422,17.461 C33.373,17.582 33.3,17.631 33.178,17.631 C33.032,17.631 32.935,17.534 32.935,17.387 C32.935,17.266 32.959,17.095 32.959,16.973 C32.959,15.39 32.009,14.635 30.767,14.635 C28.38,14.635 25.579,18.605 25.579,21.699 C25.579,22.989 26.115,23.89 27.308,23.89 C28.843,23.89 30.742,22.867 31.522,21.553 C31.643,21.358 31.741,21.284 31.888,21.284 C32.033,21.284 32.155,21.406 32.057,21.65 L31.034,24.622 C30.986,24.719 30.889,24.743 30.792,24.743 C30.694,24.743 30.596,24.669 30.596,24.523 C30.572,24.11 30.548,23.793 30.305,23.793 C30.109,23.793 29.866,23.89 29.623,23.988 C28.574,24.426 27.893,24.572 27.138,24.572 C25.335,24.572 24.094,23.403 24.094,21.358 C24.094,17.801 27.235,13.978 30.84,13.978 C31.619,13.978 32.496,14.196 33.178,14.976 C33.251,15.049 33.3,15.073 33.398,15.073 C33.543,15.073 33.738,14.781 33.885,14.586 C33.982,14.44 34.031,14.416 34.104,14.416 C34.25,14.416 34.323,14.538 34.25,14.757 L34.25,14.757 Z M33.788,22.21 C33.788,19.409 35.736,16.632 38.049,16.632 C39.268,16.632 39.901,17.655 39.901,18.897 C39.901,21.455 37.952,24.475 35.614,24.475 C34.42,24.475 33.788,23.452 33.788,22.21 L33.788,22.21 Z M34.762,22.794 C34.762,23.427 35.005,23.817 35.565,23.817 C36.978,23.817 38.927,20.212 38.927,18.312 C38.927,17.679 38.683,17.241 38.123,17.241 C36.71,17.241 34.762,20.724 34.762,22.794 L34.762,22.794 Z M42.994,14.343 C42.994,14.465 43.092,14.538 43.214,14.538 C43.408,14.562 43.725,14.586 43.895,14.635 C43.968,14.659 43.993,14.708 43.993,14.757 C43.993,14.805 43.968,14.903 43.919,15 C42.678,17.874 41.484,20.578 40.29,23.452 C40.218,23.623 40.12,23.891 40.12,24.085 C40.12,24.305 40.315,24.523 40.583,24.523 C40.753,24.523 40.973,24.499 41.168,24.426 C41.922,24.159 42.531,23.745 43.043,23.135 C43.092,23.086 43.141,23.014 43.141,22.916 C43.141,22.795 43.092,22.722 42.994,22.722 C42.945,22.722 42.897,22.746 42.823,22.795 C42.58,22.965 42.263,23.282 41.727,23.574 C41.679,23.598 41.581,23.647 41.533,23.647 C41.484,23.647 41.46,23.623 41.46,23.574 C41.46,23.501 41.484,23.452 41.508,23.379 L45.357,14.489 C45.43,14.318 45.454,14.221 45.454,14.123 C45.454,14.026 45.381,13.978 45.26,13.978 C45.064,13.978 44.7,14.002 44.407,14.026 C44.164,14.051 43.603,14.075 43.238,14.123 C43.092,14.147 42.994,14.245 42.994,14.343 L42.994,14.343 Z M47.038,23.135 C47.086,23.086 47.134,23.014 47.134,22.916 C47.134,22.795 47.086,22.722 46.988,22.722 C46.94,22.722 46.891,22.746 46.819,22.795 C46.575,22.965 46.258,23.282 45.723,23.574 C45.673,23.598 45.576,23.647 45.527,23.647 C45.478,23.647 45.454,23.623 45.454,23.574 C45.454,23.501 45.478,23.452 45.503,23.379 L49.351,14.489 C49.425,14.318 49.449,14.221 49.449,14.123 C49.449,14.026 49.376,13.978 49.254,13.978 C49.059,13.978 48.694,14.002 48.402,14.026 C48.157,14.051 47.598,14.075 47.232,14.123 C47.086,14.147 46.988,14.245 46.988,14.343 C46.988,14.465 47.086,14.538 47.208,14.538 C47.403,14.562 47.72,14.586 47.89,14.635 C47.963,14.659 47.987,14.708 47.987,14.757 C47.987,14.805 47.963,14.903 47.914,15 C46.672,17.874 45.478,20.578 44.285,23.452 C44.213,23.623 44.115,23.891 44.115,24.085 C44.115,24.305 44.31,24.523 44.577,24.523 C44.748,24.523 44.967,24.499 45.162,24.426 C45.917,24.159 46.526,23.745 47.038,23.135 L47.038,23.135 Z M50.204,20.992 C50.033,21.382 49.838,21.893 49.838,22.429 C49.838,23.184 50.204,23.647 50.837,23.647 C51.69,23.647 52.396,22.989 52.883,22.477 C52.931,22.429 53.005,22.38 53.078,22.38 C53.2,22.38 53.297,22.477 53.297,22.599 C53.297,22.698 53.249,22.77 53.2,22.843 C52.445,23.793 51.568,24.475 50.204,24.475 C49.205,24.475 48.548,23.769 48.548,22.77 C48.548,19.847 51.544,16.827 53.736,16.827 C54.491,16.827 55.026,17.168 55.026,17.923 C55.026,19.043 54.101,19.945 52.323,20.504 C51.787,20.676 50.74,20.895 50.204,20.992 L50.204,20.992 Z M50.496,20.383 C50.91,20.334 51.544,20.164 52.226,19.945 C53.224,19.628 53.955,18.922 53.955,18.069 C53.955,17.655 53.76,17.436 53.395,17.436 C52.883,17.436 52.347,17.874 52.031,18.215 C51.471,18.776 50.959,19.457 50.496,20.383 L50.496,20.383 Z M63.308,20.992 C63.137,21.382 62.943,21.893 62.943,22.429 C62.943,23.184 63.308,23.647 63.941,23.647 C64.794,23.647 65.501,22.989 65.987,22.477 C66.036,22.429 66.109,22.38 66.182,22.38 C66.304,22.38 66.402,22.477 66.402,22.599 C66.402,22.698 66.352,22.77 66.304,22.843 C65.549,23.793 64.672,24.475 63.308,24.475 C62.285,24.475 61.652,23.769 61.652,22.77 C61.652,19.847 64.647,16.827 66.84,16.827 C67.595,16.827 68.131,17.168 68.131,17.923 C68.131,19.043 67.205,19.945 65.428,20.504 C64.891,20.676 63.844,20.895 63.308,20.992 L63.308,20.992 Z M63.6,20.383 C64.015,20.334 64.647,20.164 65.329,19.945 C66.328,19.628 67.059,18.922 67.059,18.069 C67.059,17.655 66.864,17.436 66.498,17.436 C65.987,17.436 65.452,17.874 65.135,18.215 C64.575,18.776 64.063,19.457 63.6,20.383 L63.6,20.383 Z M56.926,18.118 C57.608,17.193 58.655,16.778 59.46,16.778 C60.068,16.778 60.386,16.9 60.677,17.07 C60.75,17.119 60.848,17.144 60.897,17.144 C61.019,17.144 61.115,17.07 61.213,17.022 C61.603,16.778 61.968,16.681 62.285,16.681 C62.626,16.681 62.845,16.827 62.845,17.119 C62.845,17.412 62.65,17.607 62.407,17.607 C62.114,17.607 61.872,17.362 61.554,17.362 C61.262,17.362 61.067,17.485 61.067,17.655 C61.067,17.825 61.14,17.997 61.14,18.434 C61.14,18.849 61.043,19.287 60.848,19.726 C60.117,21.284 58.924,21.552 58.047,21.552 C57.755,21.552 57.365,21.454 57.072,21.454 C56.537,21.454 56.245,21.625 56.245,21.991 C56.245,22.405 56.999,22.77 58.095,23.307 C59.167,23.842 59.776,24.427 59.776,25.084 C59.776,26.302 58.485,27.081 56.634,27.081 C54.71,27.081 53.419,26.302 53.419,25.279 C53.419,24.231 54.953,23.623 55.879,23.379 C55.368,23.014 55.1,22.722 55.1,22.235 C55.1,21.6 55.758,21.26 56.269,21.138 C56.56,21.065 56.707,21.016 56.707,20.919 C56.707,20.87 56.634,20.797 56.609,20.749 C56.488,20.53 56.342,20.164 56.342,19.726 C56.342,19.239 56.439,18.8 56.926,18.118 L56.926,18.118 Z M54.661,25.304 C54.661,25.937 55.416,26.521 56.732,26.521 C57.803,26.521 58.485,26.058 58.485,25.401 C58.485,25.035 58.364,24.816 57.682,24.402 C57.267,24.158 56.732,23.915 56.366,23.72 C55.513,24.012 54.661,24.548 54.661,25.304 L54.661,25.304 Z M57.341,20.14 C57.341,20.651 57.535,20.992 57.925,20.992 C58.437,20.992 58.997,20.749 59.679,19.604 C60.044,18.946 60.19,18.361 60.19,17.899 C60.19,17.46 59.947,17.217 59.557,17.217 C58.948,17.217 58.315,17.728 57.828,18.605 C57.486,19.214 57.341,19.726 57.341,20.14 L57.341,20.14 Z M0.833,44.03 L67.893,44.03 L67.893,43.147 L0.833,43.147 L0.833,44.03 Z M0.833,48 L67.893,48 L67.893,46.284 L0.833,46.284 L0.833,48 Z M50.737,12.231 C53.457,12.231 55.149,10.883 55.59,10.515 L55.59,8.285 C55.59,7.279 56.326,7.182 56.962,7.133 C57.085,7.133 57.158,7.01 57.158,6.863 C57.158,6.741 57.085,6.643 56.913,6.643 L51.962,6.643 C51.791,6.643 51.668,6.741 51.668,6.888 C51.668,7.059 51.791,7.182 51.962,7.182 C52.943,7.255 53.727,7.427 53.727,8.383 L53.727,9.878 C53.727,10.294 53.58,10.515 53.335,10.711 C52.427,11.373 51.496,11.471 50.737,11.471 C47.648,11.471 46.251,8.897 46.251,6.275 C46.251,2.745 48.481,0.858 50.933,0.858 C53.187,0.858 54.658,1.838 55.491,3.53 C55.59,3.726 55.688,3.799 55.835,3.799 C55.957,3.799 56.055,3.677 56.055,3.53 L56.055,0.882 C56.055,0.736 55.957,0.637 55.835,0.637 C55.688,0.637 55.614,0.736 55.565,0.882 C55.491,1.177 55.344,1.373 55.124,1.373 C54.977,1.373 54.756,1.25 54.609,1.152 C53.604,0.564 52.746,0.123 50.933,0.123 C47.942,0.123 44.216,1.765 44.216,6.202 C44.216,10.809 47.697,12.231 50.737,12.231 L50.737,12.231 Z M58.605,1.961 C58.8,1.961 59.046,1.864 59.119,1.667 C59.143,1.716 59.168,1.79 59.168,1.864 C59.168,2.353 58.776,2.819 58.114,3.089 C58.016,3.137 57.943,3.211 57.943,3.334 C57.943,3.456 58.065,3.53 58.212,3.506 C59.291,3.309 59.878,2.329 59.878,1.398 C59.878,0.564 59.414,0.123 58.752,0.123 C58.311,0.123 57.722,0.343 57.722,1.079 C57.722,1.667 58.163,1.961 58.605,1.961 L58.605,1.961 Z M60.908,11.986 C61.006,11.986 61.079,11.937 61.154,11.814 C61.227,11.643 61.374,11.373 61.619,11.373 C62.11,11.373 63.065,12.231 64.805,12.231 C66.447,12.231 68.948,11.618 68.948,8.653 C68.948,7.426 68.458,5.834 65.467,4.976 C63.359,4.363 62.697,3.603 62.697,2.55 C62.697,1.618 63.335,0.858 64.708,0.858 C65.712,0.858 66.767,1.324 67.502,2.844 C67.575,2.99 67.649,3.04 67.747,3.04 C67.87,3.04 67.967,2.941 67.943,2.794 L67.575,0.221 C67.551,0.05 67.477,0 67.354,0 C67.281,0 67.208,0.05 67.159,0.172 C67.085,0.368 66.962,0.564 66.718,0.564 C66.301,0.564 65.761,0.123 64.585,0.123 C63.065,0.123 61.055,0.907 61.055,3.015 C61.055,5.221 62.82,6.005 64.34,6.544 C66.006,7.133 67.232,7.526 67.232,9.192 C67.232,10.834 65.957,11.447 64.683,11.447 C63.335,11.447 61.815,10.809 61.227,8.823 C61.178,8.653 61.104,8.554 60.933,8.554 C60.761,8.554 60.664,8.653 60.664,8.873 L60.664,11.716 C60.664,11.888 60.761,11.986 60.908,11.986 L60.908,11.986 Z M23.456,11.716 C23.284,11.741 23.187,11.814 23.187,11.961 C23.187,12.084 23.284,12.158 23.456,12.158 L27.77,12.158 C27.942,12.158 28.04,12.084 28.04,11.961 C28.04,11.814 27.942,11.741 27.77,11.716 C26.839,11.593 26.569,11.128 26.569,10.196 L26.569,2.157 C26.569,1.226 26.839,0.76 27.77,0.638 C27.942,0.614 28.04,0.54 28.04,0.393 C28.04,0.27 27.942,0.197 27.77,0.197 L23.456,0.197 C23.284,0.197 23.187,0.27 23.187,0.393 C23.187,0.54 23.284,0.614 23.456,0.638 C24.387,0.76 24.657,1.226 24.657,2.157 L24.657,10.196 C24.657,11.128 24.387,11.593 23.456,11.716 L23.456,11.716 Z M29.927,12.158 L33.628,12.158 C33.726,12.158 33.8,12.059 33.8,11.937 C33.8,11.839 33.726,11.741 33.604,11.716 C32.82,11.593 32.255,11.423 32.157,9.976 C32.059,8.285 32.01,2.108 32.01,2.108 L41.031,12.158 L41.594,12.158 C41.594,12.158 41.594,4.976 41.692,2.378 C41.74,1.177 41.962,0.76 42.893,0.638 C43.064,0.614 43.163,0.54 43.163,0.393 C43.163,0.27 43.064,0.197 42.893,0.197 L39.193,0.197 C39.094,0.197 39.02,0.294 39.02,0.417 C39.02,0.515 39.094,0.614 39.217,0.638 C40.001,0.76 40.564,0.932 40.663,2.378 C40.786,4.069 40.811,8.849 40.811,8.849 L33.09,0.197 L30.026,0.197 C29.854,0.197 29.756,0.27 29.756,0.393 C29.756,0.54 29.854,0.614 30.026,0.638 C30.54,0.711 31.226,0.956 31.226,1.765 C31.226,4.192 31.226,7.378 31.128,9.976 C31.079,11.177 30.858,11.593 29.927,11.716 C29.756,11.741 29.657,11.814 29.657,11.961 C29.657,12.084 29.756,12.158 29.927,12.158 L29.927,12.158 Z M9.583,24.364 C9.804,24.364 9.951,24.217 9.951,24.021 C9.951,23.776 9.804,23.653 9.535,23.604 C6.863,23.236 6.446,22.084 6.324,20.712 C6.274,20.123 6.226,18.629 6.226,17.06 C6.226,15.491 6.25,13.971 6.274,13.653 C6.299,13.285 6.495,13.162 6.692,13.162 C6.863,13.162 7.034,13.236 7.157,13.334 C8.824,14.731 13.947,20.834 16.863,24.364 L23.089,24.364 C23.334,24.364 23.432,24.241 23.432,24.045 C23.432,23.825 23.284,23.653 23.089,23.653 C21.913,23.53 21.177,23.309 19.706,22.133 C18.187,20.932 9.657,10.736 9.657,10.736 C10.319,9.977 14.241,5.981 16.495,3.946 C19.143,1.545 20.172,1.226 21.299,0.956 C21.471,0.907 21.593,0.809 21.593,0.589 C21.593,0.368 21.446,0.196 21.103,0.196 C20.516,0.196 18.75,0.27 17.623,0.27 C15.662,0.27 14.044,0.196 13.702,0.196 C13.407,0.196 13.187,0.344 13.187,0.589 C13.187,0.809 13.382,0.956 13.652,1.005 C14.044,1.079 14.387,1.128 14.78,1.275 C15.172,1.422 15.393,1.593 15.393,2.01 C15.393,2.402 15.221,2.745 15,3.089 C14.461,3.922 13.848,4.682 12.868,5.712 C10.539,8.113 7.672,10.956 6.716,11.741 C6.618,11.814 6.544,11.839 6.471,11.839 C6.324,11.839 6.274,11.667 6.274,11.496 C6.274,11.3 6.299,6.839 6.348,3.849 C6.372,2.476 6.593,1.324 9.265,0.956 C9.535,0.907 9.682,0.785 9.682,0.54 C9.682,0.344 9.535,0.196 9.314,0.196 C7.647,0.27 6.912,0.27 4.853,0.27 C3.089,0.27 0.833,0.196 0.49,0.196 C0.196,0.196 0.024,0.319 0.024,0.54 C0.024,0.736 0.171,0.882 0.441,0.907 C1.397,1.055 2.868,1.275 2.966,4.044 C2.99,4.902 3.015,9.143 3.015,13.751 C3.015,16.716 2.99,19.314 2.942,20.515 C2.843,23.286 1.372,23.506 0.416,23.653 C0.147,23.677 0,23.825 0,24.021 C0,24.241 0.171,24.364 0.466,24.364 C0.809,24.364 3.063,24.29 4.829,24.29 C6.887,24.29 7.917,24.29 9.583,24.364 L9.583,24.364 Z M9.51,39.446 L10.049,36.553 C10.098,36.357 10,36.235 9.853,36.235 C9.731,36.235 9.633,36.308 9.584,36.431 C8.824,38.539 7.623,38.784 5.834,38.784 C4.019,38.784 3.628,38.489 3.628,37.657 L3.628,30.597 C3.628,29.764 4.339,29.543 4.854,29.519 C5.001,29.495 5.074,29.421 5.074,29.323 C5.074,29.201 4.975,29.103 4.829,29.103 L0.858,29.103 C0.76,29.103 0.686,29.176 0.686,29.298 C0.686,29.397 0.784,29.495 0.907,29.495 C1.716,29.543 2.01,30.084 2.01,30.867 L2.01,37.681 C2.01,38.465 1.716,38.981 0.907,39.053 C0.784,39.053 0.686,39.151 0.686,39.25 C0.686,39.372 0.76,39.446 0.858,39.446 L9.51,39.446 Z M15.956,29.029 C19.044,29.029 21.152,31.333 21.152,34.176 C21.152,37.411 18.996,39.519 15.956,39.519 C12.844,39.519 10.809,37.215 10.809,34.176 C10.809,31.382 12.966,29.029 15.956,29.029 L15.956,29.029 Z M15.956,29.69 C13.775,29.69 12.549,31.627 12.549,34.176 C12.549,36.897 13.922,38.857 15.956,38.857 C18.04,38.857 19.412,37.436 19.412,34.176 C19.412,31.529 17.892,29.69 15.956,29.69 L15.956,29.69 Z M32.133,39.446 L32.182,30.867 C32.182,30.083 32.476,29.617 33.285,29.495 C33.432,29.47 33.505,29.396 33.505,29.298 C33.505,29.176 33.432,29.103 33.334,29.103 L30.099,29.103 C29.976,29.103 29.903,29.176 29.903,29.298 C29.903,29.396 29.976,29.47 30.123,29.495 C30.932,29.641 31.324,29.886 31.348,30.867 L31.472,36.75 L24.952,29.103 L22.182,29.103 C22.06,29.103 21.986,29.176 21.986,29.298 C21.986,29.421 22.06,29.495 22.206,29.519 C22.892,29.617 23.211,29.838 23.211,30.5 L23.162,37.681 C23.162,38.465 22.868,38.931 22.06,39.053 C21.912,39.077 21.839,39.151 21.839,39.25 C21.839,39.372 21.888,39.446 22.01,39.446 L25.245,39.446 C25.369,39.446 25.442,39.372 25.442,39.25 C25.442,39.151 25.369,39.077 25.221,39.053 C24.658,38.956 24.02,38.808 23.996,37.681 L23.922,30.45 L31.569,39.446 L32.133,39.446 Z M35.662,37.681 L35.662,30.867 C35.662,30.083 35.368,29.568 34.56,29.495 C34.437,29.495 34.339,29.421 34.339,29.298 C34.339,29.176 34.413,29.103 34.511,29.103 L39.438,29.103 C42.378,29.103 45.222,30.474 45.222,34.176 C45.222,38.343 41.643,39.446 39.486,39.446 L34.511,39.446 C34.413,39.446 34.339,39.372 34.339,39.25 C34.339,39.151 34.413,39.078 34.56,39.053 C35.368,38.981 35.662,38.465 35.662,37.681 L35.662,37.681 Z M37.305,37.338 C37.305,38.588 37.966,38.784 38.652,38.784 L39.193,38.784 C41.619,38.784 43.481,37.387 43.481,34.127 C43.481,30.818 41.276,29.764 39.094,29.764 C37.795,29.764 37.305,29.838 37.305,30.769 L37.305,37.338 Z M46.594,34.176 C46.594,31.382 48.751,29.029 51.742,29.029 C54.83,29.029 56.937,31.333 56.937,34.176 C56.937,37.411 54.781,39.519 51.742,39.519 C48.629,39.519 46.594,37.215 46.594,34.176 L46.594,34.176 Z M48.334,34.176 C48.334,36.897 49.707,38.857 51.742,38.857 C53.825,38.857 55.197,37.436 55.197,34.176 C55.197,31.529 53.677,29.69 51.742,29.69 C49.561,29.69 48.334,31.627 48.334,34.176 L48.334,34.176 Z M69.095,29.103 L65.859,29.103 C65.737,29.103 65.664,29.176 65.664,29.298 C65.664,29.396 65.737,29.47 65.884,29.495 C66.693,29.641 67.085,29.886 67.109,30.867 L67.232,36.75 L60.712,29.103 L57.943,29.103 C57.82,29.103 57.747,29.176 57.747,29.298 C57.747,29.421 57.82,29.495 57.967,29.519 C58.653,29.617 58.972,29.838 58.972,30.5 L58.923,37.681 C58.923,38.465 58.629,38.931 57.82,39.053 C57.672,39.077 57.599,39.151 57.599,39.25 C57.599,39.372 57.648,39.446 57.771,39.446 L61.006,39.446 C61.129,39.446 61.202,39.372 61.202,39.25 C61.202,39.151 61.129,39.077 60.982,39.053 C60.418,38.956 59.781,38.808 59.756,37.681 L59.683,30.45 L67.33,39.446 L67.894,39.446 L67.942,30.867 C67.942,30.083 68.237,29.617 69.046,29.495 C69.193,29.47 69.267,29.396 69.267,29.298 C69.267,29.176 69.193,29.103 69.095,29.103 L69.095,29.103 Z" fill="#FEFEFE"></path>
    </g>
</svg>