<?xml version="1.0" encoding="UTF-8"?>
<svg width="160px" height="24px" viewBox="0 0 160 24" version="1.1" xmlns="http://www.w3.org/2000/svg" xmlns:xlink="http://www.w3.org/1999/xlink">
    <!-- Generator: Sketch 43.2 (39069) - http://www.bohemiancoding.com/sketch -->
    <title>Page 1</title>
    <desc>Created with Sketch.</desc>
    <defs>
        <polygon id="path-1" points="159.1598 0 0 0 0 23.9998 159.1598 23.9998 159.1598 3.55271368e-15"></polygon>
    </defs>
    <g id="Page-1" stroke="none" stroke-width="1" fill="none" fill-rule="evenodd">
        <g>
            <mask id="mask-2" fill="white">
                <use xlink:href="#path-1"></use>
            </mask>
            <g id="Clip-2"></g>
            <path d="M9.4498,0.4748 L-0.0002,0.4748 L-0.0002,23.6038 L5.0888,23.6038 L5.0888,16.6648 L8.9538,16.6648 C14.1418,16.6648 18.3048,13.8898 18.3048,8.5368 L18.3048,8.4708 C18.3048,3.7458 14.9678,0.4748 9.4498,0.4748 L9.4498,0.4748 Z M13.1508,8.6358 C13.1508,10.6188 11.6638,12.1388 9.1198,12.1388 L5.0888,12.1388 L5.0888,5.0678 L9.0198,5.0678 C11.5648,5.0678 13.1508,6.2898 13.1508,8.5698 L13.1508,8.6358 Z M41.3678,8.1738 L41.3678,8.1078 C41.3678,5.9268 40.6738,4.1098 39.3848,2.8208 C37.8658,1.3008 35.5858,0.4748 32.6448,0.4748 L22.0718,0.4748 L22.0718,23.6038 L27.1598,23.6038 L27.1598,16.2028 L31.0918,16.2028 L31.1578,16.2028 L36.1138,23.6038 L42.0618,23.6038 L36.4118,15.3428 C39.3518,14.2528 41.3678,11.9068 41.3678,8.1738 L41.3678,8.1738 Z M36.2138,8.4378 C36.2138,10.3868 34.7928,11.7088 32.3148,11.7088 L27.1598,11.7088 L27.1598,5.0678 L32.2148,5.0678 C34.6938,5.0678 36.2138,6.1908 36.2138,8.3718 L36.2138,8.4378 Z M71.4018,0.4748 L90.5658,0.4748 L90.5658,5.1668 L83.5288,5.1668 L83.5288,23.6038 L78.4398,23.6038 L78.4398,5.1668 L71.4018,5.1668 L71.4018,0.4748 Z M100.1808,19.0768 L112.7368,19.0768 L112.7368,23.6038 L95.1258,23.6038 L95.1258,0.4748 L112.5718,0.4748 L112.5718,5.0018 L100.1808,5.0018 L100.1808,9.6938 L111.0848,9.6938 L111.0848,14.2198 L100.1808,14.2198 L100.1808,19.0768 Z M134.3458,16.5988 L137.5838,19.8698 C135.2048,22.4138 132.5618,23.9998 128.1008,23.9998 C121.2948,23.9998 116.2398,18.7468 116.2398,12.1058 L116.2398,12.0388 C116.2398,5.4638 121.1958,0.0788 128.2998,0.0788 C132.6608,0.0788 135.2708,1.5318 137.4188,3.6468 L134.1808,7.3808 C132.3968,5.7618 130.5788,4.7698 128.2668,4.7698 C124.3678,4.7698 121.5588,8.0078 121.5588,11.9728 L121.5588,12.0388 C121.5588,16.0038 124.3018,19.3078 128.2668,19.3078 C130.9098,19.3078 132.5288,18.2508 134.3458,16.5988 L134.3458,16.5988 Z M159.1598,0.4748 L159.1598,5.1668 L152.1218,5.1668 L152.1218,23.6038 L147.0338,23.6038 L147.0338,5.1668 L139.9958,5.1668 L139.9958,0.4748 L159.1598,0.4748 Z M69.5188,11.8948 L69.5188,11.9608 C69.5188,17.9398 65.2288,22.9338 59.0858,23.7908 C59.0058,23.5858 58.9508,23.3828 58.9508,23.2138 C58.9508,22.5988 59.4828,20.1338 60.0988,19.8818 C60.7158,19.6288 63.1718,20.0348 63.7688,19.3208 C64.4968,18.3118 63.8148,18.0248 64.0198,17.5008 C64.1768,17.1018 64.5528,17.4158 64.5528,16.7578 C64.5428,16.5768 64.1498,16.3808 64.1498,16.3808 C64.1498,16.3808 64.7208,16.4078 64.7208,15.9868 C64.7208,15.5668 64.2448,15.1188 64.7208,14.8108 C65.1968,14.5028 65.7528,14.5308 65.7528,13.6898 C65.7528,13.4188 64.1608,12.3588 64.1608,11.1968 C64.1638,10.5108 64.7768,7.5798 62.8438,5.3708 C60.9118,3.1618 57.0458,3.4378 57.0458,3.4378 C57.0458,3.4378 50.2728,3.2298 49.5948,9.8238 C49.1608,14.0418 52.2558,16.4358 52.2558,16.4358 C52.9828,18.5378 52.3008,20.9618 51.5688,22.6748 C47.5188,20.7268 44.9358,16.6938 44.9358,12.0268 L44.9358,11.9608 C44.9358,5.3858 50.1238,-0.0002 57.2608,-0.0002 C64.3978,-0.0002 69.5188,5.3198 69.5188,11.8948 L69.5188,11.8948 Z" id="Fill-1" fill="#FEFEFE" mask="url(#mask-2)"></path>
        </g>
    </g>
</svg>