<?xml version="1.0" encoding="UTF-8"?>
<svg width="146px" height="146px" viewBox="0 0 146 146" version="1.1" xmlns="http://www.w3.org/2000/svg" xmlns:xlink="http://www.w3.org/1999/xlink">
    <!-- Generator: Sketch 43.2 (39069) - http://www.bohemiancoding.com/sketch -->
    <title>Page 1</title>
    <desc>Created with Sketch.</desc>
    <defs></defs>
    <g id="Page-1" stroke="none" stroke-width="1" fill="none" fill-rule="evenodd">
        <g fill="#00AC98">
            <path d="M22,31 C22,30.448 21.553,30 21,30 L19.556,30 C19.003,30 18.556,30.448 18.556,31 C18.556,31.552 19.003,32 19.556,32 L20,32 L20,38 C19.447,38 19,38.448 19,39 L19,46 L15,46 L15,39 C15,38.448 14.553,38 14,38 C13.447,38 13,38.448 13,39 L13,47 C13,47.552 13.447,48 14,48 L20,48 C20.553,48 21,47.552 21,47 L21,40 C21.553,40 22,39.552 22,39 L22,31 Z" id="Fill-1"></path>
            <path d="M28,25 C28,24.449 28.448,24 29,24 C29.552,24 30,24.449 30,25 C30,25.551 29.552,26 29,26 C28.448,26 28,25.551 28,25 M32,25 C32,23.346 30.654,22 29,22 C27.346,22 26,23.346 26,25 C26,26.654 27.346,28 29,28 C30.654,28 32,26.654 32,25" id="Fill-3"></path>
            <path d="M32,38 C31.447,38 31,38.448 31,39 L31,46 L27,46 L27,39 C27,38.448 26.553,38 26,38 L26,32 L32,32 L32,38 Z M34,31 C34,30.448 33.553,30 33,30 L25,30 C24.447,30 24,30.448 24,31 L24,39 C24,39.552 24.447,40 25,40 L25,47 C25,47.552 25.447,48 26,48 L32,48 C32.553,48 33,47.552 33,47 L33,40 C33.553,40 34,39.552 34,39 L34,31 Z" id="Fill-5"></path>
            <path d="M16,55 C16,54.448 16.448,54 17,54 C17.552,54 18,54.448 18,55 C18,55.552 17.552,56 17,56 C16.448,56 16,55.552 16,55 M20,55 C20,53.346 18.654,52 17,52 C15.346,52 14,53.346 14,55 C14,56.654 15.346,58 17,58 C18.654,58 20,56.654 20,55" id="Fill-7"></path>
            <path d="M20,68 C19.447,68 19,68.447 19,69 L19,76 L15,76 L15,69 C15,68.447 14.553,68 14,68 L14,62 L20,62 L20,68 Z M22,61 C22,60.447 21.553,60 21,60 L13,60 C12.447,60 12,60.447 12,61 L12,69 C12,69.553 12.447,70 13,70 L13,77 C13,77.553 13.447,78 14,78 L20,78 C20.553,78 21,77.553 21,77 L21,70 C21.553,70 22,69.553 22,69 L22,61 Z" id="Fill-9"></path>
            <path d="M28,55 C28,54.448 28.448,54 29,54 C29.552,54 30,54.448 30,55 C30,55.552 29.552,56 29,56 C28.448,56 28,55.552 28,55 M32,55 C32,53.346 30.654,52 29,52 C27.346,52 26,53.346 26,55 C26,56.654 27.346,58 29,58 C30.654,58 32,56.654 32,55" id="Fill-11"></path>
            <path d="M32,68 C31.447,68 31,68.447 31,69 L31,76 L27,76 L27,69 C27,68.447 26.553,68 26,68 L26,62 L32,62 L32,68 Z M34,61 C34,60.447 33.553,60 33,60 L25,60 C24.447,60 24,60.447 24,61 L24,69 C24,69.553 24.447,70 25,70 L25,77 C25,77.553 25.447,78 26,78 L32,78 C32.553,78 33,77.553 33,77 L33,70 C33.553,70 34,69.553 34,69 L34,61 Z" id="Fill-13"></path>
            <path d="M16,85 C16,84.448 16.448,84 17,84 C17.552,84 18,84.448 18,85 C18,85.552 17.552,86 17,86 C16.448,86 16,85.552 16,85 M20,85 C20,83.346 18.654,82 17,82 C15.346,82 14,83.346 14,85 C14,86.654 15.346,88 17,88 C18.654,88 20,86.654 20,85" id="Fill-15"></path>
            <path d="M19,99 L19,104 C19,104.553 19.447,105 20,105 C20.553,105 21,104.553 21,104 L21,100 C21.553,100 22,99.553 22,99 L22,91 C22,90.447 21.553,90 21,90 L13,90 C12.447,90 12,90.447 12,91 L12,99 C12,99.553 12.447,100 13,100 L13,107 C13,107.553 13.447,108 14,108 L17.345,108 C17.897,108 18.345,107.553 18.345,107 C18.345,106.447 17.897,106 17.345,106 L15,106 L15,99 C15,98.447 14.553,98 14,98 L14,92 L20,92 L20,98 C19.447,98 19,98.447 19,99" id="Fill-17"></path>
            <path d="M10,61 C10,60.447 9.553,60 9,60 L6.061,60 C5.508,60 5.061,60.447 5.061,61 C5.061,61.553 5.508,62 6.061,62 L8,62 L8,68 C7.447,68 7,68.447 7,69 L7,76 L5.117,76 C4.564,76 4.117,76.447 4.117,77 C4.117,77.553 4.564,78 5.117,78 L8,78 C8.553,78 9,77.553 9,77 L9,70 C9.553,70 10,69.553 10,69 L10,61 Z" id="Fill-19"></path>
            <path d="M5.7061,87.1201 C5.9011,87.3161 6.1571,87.4141 6.4141,87.4141 C6.6701,87.4141 6.9251,87.3161 7.1201,87.1221 C7.6871,86.5571 8.0001,85.8031 8.0001,85.0001 C8.0001,83.7761 7.2681,82.6861 6.1351,82.2221 C5.6271,82.0141 5.0411,82.2571 4.8301,82.7681 C4.6211,83.2791 4.8661,83.8631 5.3771,84.0731 C5.7561,84.2271 6.0001,84.5921 6.0001,85.0001 C6.0001,85.2671 5.8961,85.5181 5.7081,85.7061 C5.3161,86.0961 5.3161,86.7291 5.7061,87.1201" id="Fill-21"></path>
            <path d="M9,96.9902 C9.553,96.9902 10,96.5432 10,95.9902 L10,91.0002 C10,90.4472 9.553,90.0002 9,90.0002 L7.418,90.0002 C6.865,90.0002 6.418,90.4472 6.418,91.0002 C6.418,91.5532 6.865,92.0002 7.418,92.0002 L8,92.0002 L8,95.9902 C8,96.5432 8.447,96.9902 9,96.9902" id="Fill-23"></path>
            <path d="M28,85 C28,84.448 28.448,84 29,84 C29.552,84 30,84.448 30,85 C30,85.552 29.552,86 29,86 C28.448,86 28,85.552 28,85 M32,85 C32,83.346 30.654,82 29,82 C27.346,82 26,83.346 26,85 C26,86.654 27.346,88 29,88 C30.654,88 32,86.654 32,85" id="Fill-25"></path>
            <path d="M24,91 L24,99 C24,99.553 24.447,100 25,100 C25.553,100 26,99.553 26,99 L26,92 L33,92 C33.553,92 34,91.553 34,91 C34,90.447 33.553,90 33,90 L25,90 C24.447,90 24,90.447 24,91" id="Fill-27"></path>
            <path d="M56,115 C56,114.448 56.448,114 57,114 C57.552,114 58,114.448 58,115 C58,115.552 57.552,116 57,116 C56.448,116 56,115.552 56,115 M60,115 C60,113.346 58.654,112 57,112 C55.346,112 54,113.346 54,115 C54,116.654 55.346,118 57,118 C58.654,118 60,116.654 60,115" id="Fill-29"></path>
            <path d="M54,122 L60,122 L60,128 C59.447,128 59,128.447 59,129 L59,136 L55,136 L55,129 C55,128.447 54.553,128 54,128 L54,122 Z M54,138 L60,138 C60.553,138 61,137.553 61,137 L61,130 C61.553,130 62,129.553 62,129 L62,121 C62,120.447 61.553,120 61,120 L53,120 C52.447,120 52,120.447 52,121 L52,129 C52,129.553 52.447,130 53,130 L53,137 C53,137.553 53.447,138 54,138 L54,138 Z" id="Fill-31"></path>
            <path d="M47,129 L47,136.239 C47,136.792 47.447,137.239 48,137.239 C48.553,137.239 49,136.792 49,136.239 L49,130 C49.553,130 50,129.553 50,129 L50,121 C50,120.447 49.553,120 49,120 L46.656,120 C46.104,120 45.656,120.447 45.656,121 C45.656,121.553 46.104,122 46.656,122 L48,122 L48,128 C47.447,128 47,128.447 47,129" id="Fill-33"></path>
            <path d="M42,134.5146 C42.553,134.5146 43,134.0676 43,133.5146 L43,128.9996 C43,128.4476 42.553,127.9996 42,127.9996 L42,126.6566 C42,126.1036 41.553,125.6566 41,125.6566 C40.447,125.6566 40,126.1036 40,126.6566 L40,128.9996 C40,129.5526 40.447,129.9996 41,129.9996 L41,133.5146 C41,134.0676 41.447,134.5146 42,134.5146" id="Fill-35"></path>
            <path d="M121,107 L121,103.617 C121,103.064 120.553,102.617 120,102.617 C119.447,102.617 119,103.064 119,103.617 L119,106 L114,106 C113.447,106 113,106.447 113,107 C113,107.553 113.447,108 114,108 L120,108 C120.553,108 121,107.553 121,107" id="Fill-37"></path>
            <path d="M126,98 C125.447,98 125,98.447 125,99 L125,107 C125,107.553 125.447,108 126,108 L132,108 C132.553,108 133,107.553 133,107 L133,100 C133.553,100 134,99.553 134,99 L134,91.604 C134,91.052 133.553,90.604 133,90.604 C132.447,90.604 132,91.052 132,91.604 L132,98 C131.447,98 131,98.447 131,99 L131,106 L127,106 L127,99 C127,98.447 126.553,98 126,98" id="Fill-39"></path>
            <path d="M68,115 C68,114.448 68.448,114 69,114 C69.552,114 70,114.448 70,115 C70,115.552 69.552,116 69,116 C68.448,116 68,115.552 68,115 M72,115 C72,113.346 70.654,112 69,112 C67.346,112 66,113.346 66,115 C66,116.654 67.346,118 69,118 C70.654,118 72,116.654 72,115" id="Fill-41"></path>
            <path d="M66,122 L72,122 L72,128 C71.447,128 71,128.447 71,129 L71,136 L67,136 L67,129 C67,128.447 66.553,128 66,128 L66,122 Z M66,138 L72,138 C72.553,138 73,137.553 73,137 L73,130 C73.553,130 74,129.553 74,129 L74,121 C74,120.447 73.553,120 73,120 L65,120 C64.447,120 64,120.447 64,121 L64,129 C64,129.553 64.447,130 65,130 L65,137 C65,137.553 65.447,138 66,138 L66,138 Z" id="Fill-43"></path>
            <path d="M80,115 C80,114.448 80.448,114 81,114 C81.552,114 82,114.448 82,115 C82,115.552 81.552,116 81,116 C80.448,116 80,115.552 80,115 M84,115 C84,113.346 82.654,112 81,112 C79.346,112 78,113.346 78,115 C78,116.654 79.346,118 81,118 C82.654,118 84,116.654 84,115" id="Fill-45"></path>
            <path d="M78,122 L84,122 L84,128 C83.447,128 83,128.447 83,129 L83,136 L79,136 L79,129 C79,128.447 78.553,128 78,128 L78,122 Z M78,138 L84,138 C84.553,138 85,137.553 85,137 L85,130 C85.553,130 86,129.553 86,129 L86,121 C86,120.447 85.553,120 85,120 L77,120 C76.447,120 76,120.447 76,121 L76,129 C76,129.553 76.447,130 77,130 L77,137 C77,137.553 77.447,138 78,138 L78,138 Z" id="Fill-47"></path>
            <path d="M92,115 C92,114.448 92.448,114 93,114 C93.552,114 94,114.448 94,115 C94,115.552 93.552,116 93,116 C92.448,116 92,115.552 92,115 M96,115 C96,113.346 94.654,112 93,112 C91.346,112 90,113.346 90,115 C90,116.654 91.346,118 93,118 C94.654,118 96,116.654 96,115" id="Fill-49"></path>
            <path d="M90,122 L96,122 L96,128 C95.447,128 95,128.447 95,129 L95,136 L91,136 L91,129 C91,128.447 90.553,128 90,128 L90,122 Z M90,138 L96,138 C96.553,138 97,137.553 97,137 L97,130 C97.553,130 98,129.553 98,129 L98,121 C98,120.447 97.553,120 97,120 L89,120 C88.447,120 88,120.447 88,121 L88,129 C88,129.553 88.447,130 89,130 L89,137 C89,137.553 89.447,138 90,138 L90,138 Z" id="Fill-51"></path>
            <path d="M104,115 C104,114.448 104.448,114 105,114 C105.552,114 106,114.448 106,115 C106,115.552 105.552,116 105,116 C104.448,116 104,115.552 104,115 M108,115 C108,113.346 106.654,112 105,112 C103.346,112 102,113.346 102,115 C102,116.654 103.346,118 105,118 C106.654,118 108,116.654 108,115" id="Fill-53"></path>
            <path d="M107,129 L107,131.283 C107,131.836 107.447,132.283 108,132.283 C108.553,132.283 109,131.836 109,131.283 L109,130 C109.553,130 110,129.553 110,129 L110,121 C110,120.447 109.553,120 109,120 L101,120 C100.447,120 100,120.447 100,121 L100,129 C100,129.553 100.447,130 101,130 L101,134.501 C101,135.054 101.447,135.501 102,135.501 C102.553,135.501 103,135.054 103,134.501 L103,129 C103,128.447 102.553,128 102,128 L102,122 L108,122 L108,128 C107.447,128 107,128.447 107,129" id="Fill-55"></path>
            <path d="M118,115 C118,115.552 117.552,116 117,116 C116.448,116 116,115.552 116,115 C116,114.448 116.448,114 117,114 C117.552,114 118,114.448 118,115 M114,115 C114,116.654 115.346,118 117,118 C118.654,118 120,116.654 120,115 C120,113.346 118.654,112 117,112 C115.346,112 114,113.346 114,115" id="Fill-57"></path>
            <path d="M112,121 L112,127.96 C112,128.513 112.447,128.96 113,128.96 C113.553,128.96 114,128.513 114,127.96 L114,122 L121,122 C121.553,122 122,121.553 122,121 C122,120.447 121.553,120 121,120 L113,120 C112.447,120 112,120.447 112,121" id="Fill-59"></path>
            <path d="M129,58 C129,65.007 124.966,65.983 124.804,66.02 C124.337,66.113 124,66.523 124,67 C124,75.516 115.336,82 111,82 C110.447,82 110,82.447 110,83 C110,83.553 110.447,84 111,84 C116.635,84 125.518,76.624 125.981,67.725 C127.571,67.063 131,64.843 131,58 C131,57.447 130.553,57 130,57 C129.447,57 129,57.447 129,58" id="Fill-61"></path>
            <path d="M117,84 C116.447,84 116,84.447 116,85 L116,86.27 C115.052,86.547 113.167,87 111,87 C108.843,87 106.95,86.545 105.999,86.269 L105.999,81 C105.999,80.661 105.826,80.344 105.541,80.159 C105.466,80.111 97.999,75.186 97.999,67 C97.999,66.447 97.552,66 96.999,66 C96.446,66 95.999,66.447 95.999,67 C95.999,75.138 102.219,80.232 103.999,81.523 L103.999,87 C103.999,87.009 104.004,87.016 104.004,87.025 C104.006,87.092 104.028,87.154 104.043,87.219 C104.058,87.282 104.063,87.347 104.088,87.405 C104.11,87.453 104.147,87.491 104.176,87.536 C104.217,87.598 104.252,87.665 104.306,87.717 C104.34,87.75 104.387,87.769 104.426,87.798 C104.492,87.846 104.556,87.896 104.633,87.926 C104.64,87.929 104.644,87.935 104.651,87.938 C104.768,87.98 107.546,89 111,89 C114.454,89 117.232,87.98 117.349,87.938 C117.356,87.935 117.36,87.929 117.367,87.926 C117.442,87.896 117.504,87.847 117.568,87.801 C117.61,87.771 117.659,87.751 117.695,87.716 C117.743,87.669 117.774,87.608 117.812,87.551 C117.846,87.501 117.888,87.458 117.913,87.403 C117.934,87.354 117.937,87.299 117.95,87.247 C117.97,87.172 117.994,87.099 117.996,87.021 C117.996,87.013 118,87.007 118,87 L118,85 C118,84.447 117.553,84 117,84" id="Fill-63"></path>
            <path d="M92.999,82 L99,82 C99.553,82 100,81.553 100,81 C100,80.447 99.553,80 99,80 L93.999,80 L93.999,59.97 C117.733,59.34 121.454,36.665 121.489,36.433 C121.571,35.887 121.196,35.378 120.65,35.295 C120.104,35.209 119.595,35.587 119.512,36.133 C119.375,37.026 115.899,58 92.999,58 C92.446,58 91.999,58.447 91.999,59 L91.999,81 C91.999,81.553 92.446,82 92.999,82" id="Fill-65"></path>
            <path d="M92.999,56 C93.552,56 93.999,55.553 93.999,55 L93.999,47 C93.999,37.626 101.653,30 111.061,30 C120.47,30 128.124,37.626 128.124,47 L128.124,52.96 C122.078,52.555 121.71,48.047 121.697,47.845 C121.667,47.296 121.191,46.873 120.65,46.901 C120.099,46.928 119.673,47.397 119.7,47.949 C119.704,48.02 120.149,55 128.999,55 C129.021,55 129.04,54.989 129.062,54.987 C129.083,54.989 129.102,55 129.124,55 C129.677,55 130.124,54.553 130.124,54 L130.124,47 C130.124,36.523 121.572,28 111.061,28 C100.551,28 91.999,36.523 91.999,47 L91.999,55 C91.999,55.553 92.446,56 92.999,56" id="Fill-67"></path>
            <path d="M75,82 C74.447,82 74,82.447 74,83 L74,86.331 C72.807,86.692 70.105,87.389 67,87.389 C63.838,87.389 61.096,86.667 59.937,86.311 L59.937,79 C59.937,78.447 59.49,78 58.938,78 C55.078,78 51.938,74.859 51.938,71 L51.938,63 C51.938,62.447 51.49,62 50.938,62 C49.857,62 49.021,61.653 48.383,60.941 C46.447,58.783 46.927,54.156 46.932,54.109 C46.936,54.073 46.938,54.036 46.938,54 C46.938,52.897 47.835,52 48.938,52 C49.49,52 49.938,51.553 49.938,51 L49.938,45 C49.938,36.729 56.666,30 64.937,30 L68.938,30 C77.209,30 83.938,36.729 83.938,45 L83.938,51 C83.938,51.553 84.385,52 84.938,52 C86.04,52 86.938,52.897 86.938,54 C86.938,54.036 86.939,54.073 86.943,54.109 C87.104,55.584 87.083,59.755 85.08,61.328 C84.505,61.78 83.805,62 82.937,62 C82.385,62 81.937,62.447 81.937,63 L81.937,71 C81.937,74.859 78.797,78 74.938,78 L63,78 C62.447,78 62,78.447 62,79 C62,79.553 62.447,80 63,80 L74.938,80 C79.9,80 83.938,75.963 83.938,71 L83.938,63.924 C84.836,63.78 85.633,63.438 86.315,62.9 C89.479,60.416 89.004,54.614 88.938,53.944 C88.912,52.108 87.644,50.567 85.938,50.127 L85.938,45 C85.938,35.626 78.312,28 68.938,28 L64.937,28 C55.563,28 47.938,35.626 47.938,45 L47.938,50.127 C46.231,50.567 44.963,52.108 44.938,53.944 C44.877,54.56 44.466,59.563 46.891,62.272 C47.702,63.18 48.724,63.732 49.938,63.924 L49.938,71 C49.938,75.625 53.443,79.445 57.938,79.944 L57.938,87 C57.938,87.301 58.076,87.562 58.286,87.745 C58.387,87.85 58.506,87.939 58.651,87.993 C58.805,88.05 62.454,89.389 67,89.389 C71.546,89.389 75.195,88.05 75.349,87.993 C75.755,87.842 75.994,87.456 75.991,87.047 C75.991,87.03 76,87.017 76,87 L76,83 C76,82.447 75.553,82 75,82" id="Fill-69"></path>
            <path d="M117.5967,72.8018 C118.0387,72.4728 118.1307,71.8488 117.8027,71.4058 C117.4747,70.9628 116.8487,70.8678 116.4047,71.1968 C116.3797,71.2148 113.9257,72.9998 110.9997,72.9998 C108.0947,72.9998 105.6547,71.2398 105.5967,71.1978 C105.1527,70.8688 104.5287,70.9618 104.1987,71.4038 C103.8677,71.8458 103.9597,72.4728 104.4037,72.8018 C104.5237,72.8918 107.3967,74.9998 110.9997,74.9998 C114.6037,74.9998 117.4767,72.8918 117.5967,72.8018" id="Fill-71"></path>
            <path d="M73.4092,70.4443 C73.8952,70.1833 74.0782,69.5803 73.8192,69.0923 C73.5592,68.6053 72.9542,68.4233 72.4682,68.6793 C72.4422,68.6933 69.9432,70.0003 66.9372,70.0003 C63.9312,70.0003 61.4322,68.6933 61.4072,68.6793 C60.9202,68.4233 60.3142,68.6053 60.0552,69.0923 C59.7972,69.5803 59.9792,70.1833 60.4662,70.4443 C60.5842,70.5073 63.4142,72.0003 66.9372,72.0003 C70.4612,72.0003 73.2912,70.5073 73.4092,70.4443" id="Fill-73"></path>
            <path d="M103.8477,89.4697 C103.5557,89.0007 102.9397,88.8587 102.4697,89.1527 L86.4697,99.1527 C86.0017,99.4447 85.8597,100.0617 86.1527,100.5307 C86.3417,100.8337 86.6677,100.9997 87.0007,100.9997 C87.1817,100.9997 87.3657,100.9507 87.5307,100.8477 L103.5307,90.8477 C103.9977,90.5557 104.1407,89.9387 103.8477,89.4697" id="Fill-75"></path>
            <path d="M86.832,96.5547 C87.139,96.0947 87.015,95.4747 86.555,95.1677 L77.555,89.1677 C77.093,88.8627 76.474,88.9857 76.168,89.4457 C75.861,89.9057 75.985,90.5257 76.445,90.8317 L85.445,96.8317 C85.616,96.9457 85.809,96.9997 85.999,96.9997 C86.322,96.9997 86.64,96.8437 86.832,96.5547" id="Fill-77"></path>
            <path d="M42.9355,88.4785 C43.3265,88.0875 43.3265,87.4555 42.9355,87.0645 C42.5445,86.6735 41.9125,86.6735 41.5215,87.0645 L14.8535,113.7325 C6.4475,101.7605 1.9995,87.7065 1.9995,72.9995 C1.9995,33.8505 33.8505,1.9995 72.9995,1.9995 C75.8045,1.9995 78.6305,2.1655 81.3995,2.4915 C81.9545,2.5555 82.4455,2.1645 82.5095,1.6155 C82.5745,1.0665 82.1815,0.5695 81.6335,0.5055 C78.7875,0.1695 75.8825,-0.0005 72.9995,-0.0005 C32.7475,-0.0005 -0.0005,32.7475 -0.0005,72.9995 C-0.0005,88.5255 4.8095,103.3505 13.9085,115.8715 C13.9255,115.8945 13.9525,115.9025 13.9705,115.9245 C13.9875,115.9435 13.9945,115.9685 14.0125,115.9875 C14.0565,116.0315 14.1125,116.0525 14.1625,116.0865 C14.2145,116.1225 14.2595,116.1645 14.3165,116.1895 C14.4185,116.2345 14.5255,116.2545 14.6345,116.2635 C14.6635,116.2665 14.6885,116.2835 14.7175,116.2835 C14.8365,116.2835 14.9535,116.2555 15.0665,116.2125 C15.0975,116.2015 15.1245,116.1825 15.1545,116.1675 C15.2055,116.1435 15.2575,116.1255 15.3045,116.0915 C15.3275,116.0755 15.3385,116.0495 15.3595,116.0315 C15.3805,116.0135 15.4065,116.0075 15.4265,115.9875 L42.9355,88.4785 Z" id="Fill-79"></path>
            <path d="M43,57 C43,31.636 63.636,11 89,11 C114.364,11 135,31.636 135,57 C135,82.364 114.364,103 89,103 C63.636,103 43,82.364 43,57 M137,57 C137,30.533 115.468,9 89,9 C62.532,9 41,30.533 41,57 C41,83.468 62.532,105 89,105 C115.468,105 137,83.468 137,57" id="Fill-81"></path>
            <path d="M45.252,90.4033 C44.861,90.0123 44.229,90.0123 43.838,90.4033 L30.293,103.9483 C29.902,104.3393 29.902,104.9713 30.293,105.3623 C30.488,105.5573 30.744,105.6553 31,105.6553 C31.256,105.6553 31.512,105.5573 31.707,105.3623 L45.252,91.8173 C45.643,91.4263 45.643,90.7943 45.252,90.4033" id="Fill-83"></path>
            <path d="M145.5352,64.71 C145.4732,64.161 144.9792,63.773 144.4292,63.828 C143.8802,63.891 143.4852,64.386 143.5472,64.935 C143.8482,67.597 144.0002,70.311 144.0002,73 C144.0002,112.149 112.1492,144 73.0002,144 C51.5742,144 31.5112,134.467 17.9522,117.846 C17.6032,117.418 16.9732,117.352 16.5462,117.703 C16.1182,118.052 16.0542,118.682 16.4022,119.109 C30.3422,136.199 50.9712,146 73.0002,146 C113.2522,146 146.0002,113.252 146.0002,73 C146.0002,70.236 145.8442,67.447 145.5352,64.71" id="Fill-85"></path>
            <path d="M36,57 C36,73.812 43.714,89.257 57.164,99.377 C57.607,99.71 58.233,99.62 58.564,99.18 C58.896,98.738 58.809,98.111 58.367,97.779 C45.424,88.04 38,73.177 38,57 C38,28.878 60.879,6 89,6 C117.121,6 140,28.878 140,57 C140,85.121 117.121,108 89,108 C79.271,108 69.812,105.251 61.645,100.05 C61.623,100.036 61.597,100.035 61.575,100.023 C61.503,99.984 61.431,99.958 61.353,99.938 C61.304,99.926 61.258,99.915 61.208,99.91 C61.131,99.902 61.058,99.906 60.981,99.916 C60.929,99.922 60.879,99.93 60.828,99.945 C60.76,99.965 60.699,99.994 60.636,100.029 C60.58,100.059 60.529,100.091 60.48,100.132 C60.455,100.152 60.425,100.161 60.402,100.184 L32.899,127.687 C32.509,128.077 32.509,128.71 32.899,129.101 C33.095,129.296 33.351,129.394 33.606,129.394 C33.862,129.394 34.118,129.296 34.313,129.101 L61.257,102.157 C69.587,107.286 79.159,110 89,110 C118.225,110 142,86.225 142,57 C142,27.776 118.225,4 89,4 C59.775,4 36,27.776 36,57" id="Fill-87"></path>
        </g>
    </g>
</svg>