<?xml version="1.0" encoding="UTF-8"?>
<svg width="96px" height="97px" viewBox="0 0 96 97" version="1.1" xmlns="http://www.w3.org/2000/svg" xmlns:xlink="http://www.w3.org/1999/xlink">
    <!-- Generator: Sketch 43.2 (39069) - http://www.bohemiancoding.com/sketch -->
    <title>Page 1</title>
    <desc>Created with Sketch.</desc>
    <defs></defs>
    <g id="Page-1" stroke="none" stroke-width="1" fill="none" fill-rule="evenodd" stroke-linecap="round" stroke-linejoin="round">
        <path d="M55.092,73.887 C55.092,73.887 65.647,73.887 65.647,63.331 C65.647,54.755 62.348,53.436 62.348,53.436 C62.348,53.436 65.647,51.456 65.647,42.88 C65.647,34.963 60.369,32.324 60.369,32.324 C60.369,27.976 60.023,23.023 60.369,20.12 C61.047,14.434 62.329,12.863 59.71,12.863 C55.752,12.863 50.474,18.14 50.474,31.005 L35.969,31.005 C24.755,31.005 25.415,38.922 25.415,38.922 C25.415,38.922 25.415,44.859 30.692,44.859 C30.692,44.859 25.415,44.2 25.415,48.818 C25.415,54.095 30.692,54.095 30.692,54.095 C31.673,53.85 26.727,53.681 26.727,58.713 C26.727,63.991 32.004,63.991 32.004,63.991 C32.004,63.991 29.365,64.651 29.365,68.609 C29.365,73.227 34.643,73.227 34.643,73.227 L47.176,73.227 C47.176,73.227 52.453,73.227 52.453,68.609 C52.453,63.991 47.176,63.991 47.176,63.991 L36.622,63.991 M48.495,63.991 C48.495,63.991 54.432,64.651 54.432,59.373 C54.432,54.095 49.116,54.755 49.155,54.755 L36.622,54.755 M49.155,54.755 C49.155,54.755 55.092,55.415 55.092,50.137 C55.092,44.859 49.815,45.519 49.815,45.519 L36.622,45.519 M47.836,45.519 C47.836,45.519 53.113,45.519 53.113,40.901 C53.113,36.283 47.836,36.283 47.836,36.283 L32.004,36.283 M68.285,37.602 L94.671,37.602 M68.285,71.248 L90.054,71.248 M55.092,73.887 L53.113,73.887 M94.72,37.602 C89.793,16.624 70.975,1 48.495,1 C22.264,1 1,22.267 1,48.5 C1,74.734 22.264,96 48.495,96 C66.485,96 82.137,85.996 90.197,71.248" stroke="#0064D2" stroke-width="2"></path>
    </g>
</svg>