<?xml version="1.0" encoding="UTF-8"?>
<svg width="340px" height="24px" viewBox="0 0 340 24" version="1.1" xmlns="http://www.w3.org/2000/svg" xmlns:xlink="http://www.w3.org/1999/xlink">
    <!-- Generator: Sketch 43.2 (39069) - http://www.bohemiancoding.com/sketch -->
    <title>Page 1</title>
    <desc>Created with Sketch.</desc>
    <defs>
        <polygon id="path-1" points="21.6437 24 0.8447 24 0.8447 0.0004 21.6437 0.0004"></polygon>
        <polygon id="path-3" points="19.716 0.3335 19.716 23.6665 0.2163 23.6665 0.2163 0.3335 19.716 0.3335"></polygon>
    </defs>
    <g id="Page-1" stroke="none" stroke-width="1" fill="none" fill-rule="evenodd">
        <g>
            <path d="M68.9472,23.4165 C68.7812,23.2495 68.6972,23.0555 68.6972,22.8335 L68.6972,1.1665 C68.6972,0.9225 68.7812,0.7225 68.9472,0.5675 C69.1142,0.4115 69.3082,0.3335 69.5302,0.3335 L74.2982,0.3335 C74.5422,0.3335 74.7412,0.4115 74.8972,0.5675 C75.0532,0.7225 75.1312,0.9225 75.1312,1.1665 L75.1312,22.8335 C75.1312,23.0555 75.0532,23.2495 74.8972,23.4165 C74.7412,23.5835 74.5422,23.6665 74.2982,23.6665 L69.5302,23.6665 C69.3082,23.6665 69.1142,23.5835 68.9472,23.4165" id="Fill-1" fill="#FEFEFE"></path>
            <path d="M311.4832,23.4165 C311.3172,23.2495 311.2332,23.0555 311.2332,22.8335 L311.2332,1.1665 C311.2332,0.9225 311.3172,0.7225 311.4832,0.5675 C311.6502,0.4115 311.8442,0.3335 312.0662,0.3335 L316.8342,0.3335 C317.0782,0.3335 317.2772,0.4115 317.4332,0.5675 C317.5892,0.7225 317.6672,0.9225 317.6672,1.1665 L317.6672,22.8335 C317.6672,23.0555 317.5892,23.2495 317.4332,23.4165 C317.2772,23.5835 317.0782,23.6665 316.8342,23.6665 L312.0662,23.6665 C311.8442,23.6665 311.6502,23.5835 311.4832,23.4165" id="Fill-3" fill="#FEFEFE"></path>
            <path d="M6.9835,23.4328 C6.8165,23.2778 6.7335,23.0778 6.7335,22.8328 L6.7335,5.7668 L0.8665,5.7668 C0.6225,5.7668 0.4165,5.6888 0.2505,5.5338 C0.0835,5.3778 0.0005,5.1778 0.0005,4.9328 L0.0005,1.1998 C0.0005,0.9558 0.0835,0.7508 0.2505,0.5838 C0.4165,0.4168 0.6225,0.3338 0.8665,0.3338 L18.9665,0.3338 C19.2105,0.3338 19.4165,0.4168 19.5825,0.5838 C19.7495,0.7508 19.8335,0.9558 19.8335,1.1998 L19.8335,4.9328 C19.8335,5.1778 19.7495,5.3778 19.5825,5.5338 C19.4165,5.6888 19.2105,5.7668 18.9665,5.7668 L13.0995,5.7668 L13.0995,22.8328 C13.0995,23.0778 13.0165,23.2778 12.8505,23.4328 C12.6835,23.5888 12.4775,23.6668 12.2335,23.6668 L7.5995,23.6668 C7.3555,23.6668 7.1495,23.5888 6.9835,23.4328" id="Fill-5" fill="#FEFEFE"></path>
            <path d="M22.266,23.4165 C22.099,23.2495 22.016,23.0555 22.016,22.8335 L22.016,1.2005 C22.016,0.9565 22.093,0.7505 22.249,0.5835 C22.404,0.4165 22.604,0.3335 22.849,0.3335 L32.016,0.3335 C34.949,0.3335 37.243,1.0005 38.899,2.3335 C40.554,3.6665 41.382,5.5455 41.382,7.9665 C41.382,9.5225 41.021,10.8445 40.299,11.9335 C39.576,13.0215 38.582,13.8665 37.316,14.4665 L41.815,22.5995 C41.882,22.7325 41.915,22.8555 41.915,22.9665 C41.915,23.1445 41.849,23.3055 41.715,23.4495 C41.582,23.5945 41.415,23.6665 41.215,23.6665 L36.516,23.6665 C35.871,23.6665 35.415,23.3655 35.149,22.7665 L31.482,15.5335 L28.283,15.5335 L28.283,22.8335 C28.283,23.0775 28.199,23.2785 28.032,23.4325 C27.866,23.5895 27.66,23.6665 27.416,23.6665 L22.849,23.6665 C22.627,23.6665 22.433,23.5835 22.266,23.4165 L22.266,23.4165 Z M31.982,10.6335 C32.937,10.6335 33.666,10.3955 34.165,9.9165 C34.665,9.4385 34.916,8.7785 34.916,7.9335 C34.916,7.0885 34.665,6.4115 34.165,5.8995 C33.666,5.3885 32.937,5.1335 31.982,5.1335 L28.283,5.1335 L28.283,10.6335 L31.982,10.6335 Z" id="Fill-7" fill="#FEFEFE"></path>
            <path d="M43.3986,23.4499 C43.2536,23.3049 43.1816,23.1449 43.1816,22.9669 C43.1816,22.8329 43.1926,22.7329 43.2146,22.6659 L50.9816,1.3009 C51.2036,0.6559 51.6486,0.3339 52.3146,0.3339 L57.5146,0.3339 C58.1816,0.3339 58.6256,0.6559 58.8486,1.3009 L66.6146,22.6659 C66.6366,22.7329 66.6476,22.8329 66.6476,22.9669 C66.6476,23.1449 66.5756,23.3049 66.4316,23.4499 C66.2866,23.5949 66.1256,23.6669 65.9476,23.6669 L61.6146,23.6669 C61.0816,23.6669 60.7036,23.4219 60.4816,22.9329 L59.2816,19.6999 L50.5486,19.6999 L49.3486,22.9329 C49.1256,23.4219 48.7486,23.6669 48.2146,23.6669 L43.8816,23.6669 C43.7036,23.6669 43.5426,23.5949 43.3986,23.4499 L43.3986,23.4499 Z M51.9486,14.6999 L57.8816,14.6999 L54.9146,6.1999 L51.9486,14.6999 Z" id="Fill-9" fill="#FEFEFE"></path>
            <path d="M77.9304,23.4165 C77.7634,23.2495 77.6804,23.0555 77.6804,22.8335 L77.6804,1.2005 C77.6804,0.9565 77.7574,0.7505 77.9134,0.5835 C78.0684,0.4165 78.2684,0.3335 78.5134,0.3335 L82.2804,0.3335 C82.7914,0.3335 83.1684,0.5455 83.4134,0.9665 L91.2804,13.3995 L91.2804,1.2005 C91.2804,0.9565 91.3574,0.7505 91.5134,0.5835 C91.6684,0.4165 91.8684,0.3335 92.1134,0.3335 L96.3464,0.3335 C96.5904,0.3335 96.7914,0.4165 96.9464,0.5835 C97.1014,0.7505 97.1804,0.9565 97.1804,1.2005 L97.1804,22.7995 C97.1804,23.0445 97.1014,23.2495 96.9464,23.4165 C96.7914,23.5835 96.5904,23.6665 96.3464,23.6665 L92.5804,23.6665 C92.0684,23.6665 91.6914,23.4555 91.4464,23.0335 L83.6134,11.0995 L83.6134,22.8335 C83.6134,23.0775 83.5304,23.2785 83.3634,23.4325 C83.1964,23.5895 82.9914,23.6665 82.7464,23.6665 L78.5134,23.6665 C78.2914,23.6665 78.0974,23.5835 77.9304,23.4165" id="Fill-11" fill="#FEFEFE"></path>
            <path d="M104.7125,23.4165 C104.5455,23.2495 104.4625,23.0555 104.4625,22.8335 L104.4625,1.2005 C104.4625,0.9565 104.5405,0.7505 104.6955,0.5835 C104.8505,0.4165 105.0515,0.3335 105.2955,0.3335 L120.7955,0.3335 C121.0395,0.3335 121.2455,0.4165 121.4125,0.5835 C121.5785,0.7505 121.6615,0.9565 121.6615,1.2005 L121.6615,4.7335 C121.6615,4.9785 121.5785,5.1785 121.4125,5.3335 C121.2455,5.4885 121.0395,5.5675 120.7955,5.5675 L110.5955,5.5675 L110.5955,10.1995 L120.1285,10.1995 C120.3725,10.1995 120.5785,10.2835 120.7455,10.4495 C120.9125,10.6165 120.9955,10.8225 120.9955,11.0665 L120.9955,14.6005 C120.9955,14.8445 120.9125,15.0445 120.7455,15.1995 C120.5785,15.3555 120.3725,15.4335 120.1285,15.4335 L110.5955,15.4335 L110.5955,22.8335 C110.5955,23.0555 110.5175,23.2495 110.3625,23.4165 C110.2065,23.5835 110.0065,23.6665 109.7625,23.6665 L105.2955,23.6665 C105.0735,23.6665 104.8795,23.5835 104.7125,23.4165" id="Fill-13" fill="#FEFEFE"></path>
            <g id="Group-17" transform="translate(123.000000, 0.000000)">
                <mask id="mask-2" fill="white">
                    <use xlink:href="#path-1"></use>
                </mask>
                <g id="Clip-16"></g>
                <path d="M3.7777,21.6994 C1.9557,20.1664 0.9887,17.9114 0.8777,14.9324 C0.8557,14.3114 0.8447,13.3554 0.8447,12.0664 C0.8447,10.7784 0.8557,9.8114 0.8777,9.1664 C0.9667,6.2334 1.9387,3.9724 3.7947,2.3834 C5.6497,0.7954 8.1327,0.0004 11.2437,0.0004 C14.3327,0.0004 16.8047,0.7954 18.6607,2.3834 C20.5157,3.9724 21.4887,6.2334 21.5777,9.1664 C21.6217,10.4554 21.6437,11.4224 21.6437,12.0664 C21.6437,12.7334 21.6217,13.6894 21.5777,14.9324 C21.4657,17.9114 20.5047,20.1664 18.6937,21.6994 C16.8827,23.2334 14.3997,24.0004 11.2437,24.0004 C8.0887,24.0004 5.5997,23.2334 3.7777,21.6994 M14.0107,17.9494 C14.6997,17.2494 15.0657,16.1784 15.1107,14.7334 C15.1557,13.4444 15.1777,12.5224 15.1777,11.9664 C15.1777,11.4114 15.1557,10.5114 15.1107,9.2664 C15.0657,7.8224 14.6997,6.7504 14.0107,6.0504 C13.3217,5.3494 12.3997,4.9994 11.2437,4.9994 C10.0657,4.9994 9.1327,5.3494 8.4447,6.0504 C7.7557,6.7504 7.3887,7.8224 7.3447,9.2664 C7.3217,9.8894 7.3107,10.7894 7.3107,11.9664 C7.3107,13.1674 7.3217,14.0894 7.3447,14.7334 C7.3887,16.1784 7.7557,17.2494 8.4447,17.9494 C9.1327,18.6504 10.0657,19.0004 11.2437,19.0004 C12.3997,19.0004 13.3217,18.6504 14.0107,17.9494" id="Fill-15" fill="#FEFEFE" mask="url(#mask-2)"></path>
            </g>
            <path d="M147.5772,23.4165 C147.4102,23.2495 147.3272,23.0555 147.3272,22.8335 L147.3272,1.2005 C147.3272,0.9565 147.4042,0.7505 147.5602,0.5835 C147.7152,0.4165 147.9162,0.3335 148.1602,0.3335 L157.3262,0.3335 C160.2602,0.3335 162.5542,1.0005 164.2102,2.3335 C165.8652,3.6665 166.6932,5.5455 166.6932,7.9665 C166.6932,9.5225 166.3322,10.8445 165.6102,11.9335 C164.8872,13.0215 163.8932,13.8665 162.6272,14.4665 L167.1272,22.5995 C167.1932,22.7325 167.2262,22.8555 167.2262,22.9665 C167.2262,23.1445 167.1592,23.3055 167.0272,23.4495 C166.8932,23.5945 166.7262,23.6665 166.5262,23.6665 L161.8272,23.6665 C161.1822,23.6665 160.7262,23.3655 160.4602,22.7665 L156.7942,15.5335 L153.5942,15.5335 L153.5942,22.8335 C153.5942,23.0775 153.5102,23.2785 153.3442,23.4325 C153.1772,23.5895 152.9712,23.6665 152.7272,23.6665 L148.1602,23.6665 C147.9382,23.6665 147.7442,23.5835 147.5772,23.4165 L147.5772,23.4165 Z M157.2932,10.6335 C158.2492,10.6335 158.9772,10.3955 159.4772,9.9165 C159.9772,9.4385 160.2272,8.7785 160.2272,7.9335 C160.2272,7.0885 159.9772,6.4115 159.4772,5.8995 C158.9772,5.3885 158.2492,5.1335 157.2932,5.1335 L153.5942,5.1335 L153.5942,10.6335 L157.2932,10.6335 Z" id="Fill-18" fill="#FEFEFE"></path>
            <path d="M286.1013,23.4499 C285.9563,23.3049 285.8843,23.1449 285.8843,22.9669 C285.8843,22.8329 285.8953,22.7329 285.9173,22.6659 L293.6843,1.3009 C293.9063,0.6559 294.3513,0.3339 295.0173,0.3339 L300.2173,0.3339 C300.8843,0.3339 301.3283,0.6559 301.5513,1.3009 L309.3173,22.6659 C309.3393,22.7329 309.3503,22.8329 309.3503,22.9669 C309.3503,23.1449 309.2783,23.3049 309.1343,23.4499 C308.9893,23.5949 308.8283,23.6669 308.6503,23.6669 L304.3173,23.6669 C303.7843,23.6669 303.4063,23.4219 303.1843,22.9329 L301.9843,19.6999 L293.2513,19.6999 L292.0513,22.9329 C291.8283,23.4219 291.4513,23.6669 290.9173,23.6669 L286.5843,23.6669 C286.4063,23.6669 286.2453,23.5949 286.1013,23.4499 L286.1013,23.4499 Z M294.6513,14.6999 L300.5843,14.6999 L297.6173,6.1999 L294.6513,14.6999 Z" id="Fill-20" fill="#FEFEFE"></path>
            <g id="Group-24" transform="translate(320.000000, 0.000000)">
                <mask id="mask-4" fill="white">
                    <use xlink:href="#path-3"></use>
                </mask>
                <g id="Clip-23"></g>
                <path d="M0.4663,23.4165 C0.2993,23.2495 0.2163,23.0555 0.2163,22.8335 L0.2163,1.2005 C0.2163,0.9565 0.2943,0.7505 0.4493,0.5835 C0.6043,0.4165 0.8053,0.3335 1.0493,0.3335 L4.8163,0.3335 C5.3273,0.3335 5.7043,0.5455 5.9493,0.9665 L13.8163,13.3995 L13.8163,1.2005 C13.8163,0.9565 13.8933,0.7505 14.0493,0.5835 C14.2043,0.4165 14.4043,0.3335 14.6493,0.3335 L18.8823,0.3335 C19.1263,0.3335 19.3273,0.4165 19.4823,0.5835 C19.6383,0.7505 19.7163,0.9565 19.7163,1.2005 L19.7163,22.7995 C19.7163,23.0445 19.6383,23.2495 19.4823,23.4165 C19.3273,23.5835 19.1263,23.6665 18.8823,23.6665 L15.1163,23.6665 C14.6043,23.6665 14.2273,23.4555 13.9823,23.0335 L6.1493,11.0995 L6.1493,22.8335 C6.1493,23.0775 6.0663,23.2785 5.8993,23.4325 C5.7323,23.5895 5.5273,23.6665 5.2823,23.6665 L1.0493,23.6665 C0.8273,23.6665 0.6333,23.5835 0.4663,23.4165" id="Fill-22" fill="#FEFEFE" mask="url(#mask-4)"></path>
            </g>
            <path d="M179.5394,23.4328 C179.3724,23.2778 179.2894,23.0778 179.2894,22.8328 L179.2894,5.7668 L173.4224,5.7668 C173.1784,5.7668 172.9724,5.6888 172.8064,5.5338 C172.6394,5.3778 172.5564,5.1778 172.5564,4.9328 L172.5564,1.1998 C172.5564,0.9558 172.6394,0.7508 172.8064,0.5838 C172.9724,0.4168 173.1784,0.3338 173.4224,0.3338 L191.5224,0.3338 C191.7664,0.3338 191.9724,0.4168 192.1384,0.5838 C192.3054,0.7508 192.3894,0.9558 192.3894,1.1998 L192.3894,4.9328 C192.3894,5.1778 192.3054,5.3778 192.1384,5.5338 C191.9724,5.6888 191.7664,5.7668 191.5224,5.7668 L185.6554,5.7668 L185.6554,22.8328 C185.6554,23.0778 185.5724,23.2778 185.4064,23.4328 C185.2394,23.5888 185.0334,23.6668 184.7894,23.6668 L180.1554,23.6668 C179.9114,23.6668 179.7054,23.5888 179.5394,23.4328" id="Fill-25" fill="#FEFEFE"></path>
            <path d="M194.8052,23.4328 C194.6492,23.2778 194.5722,23.0778 194.5722,22.8328 L194.5722,1.1998 C194.5722,0.9558 194.6492,0.7508 194.8052,0.5838 C194.9602,0.4168 195.1602,0.3338 195.4052,0.3338 L199.9722,0.3338 C200.2162,0.3338 200.4222,0.4168 200.5882,0.5838 C200.7552,0.7508 200.8382,0.9558 200.8382,1.1998 L200.8382,9.0998 L208.7052,9.0998 L208.7052,1.1998 C208.7052,0.9558 208.7882,0.7508 208.9552,0.5838 C209.1212,0.4168 209.3272,0.3338 209.5712,0.3338 L214.1052,0.3338 C214.3492,0.3338 214.5552,0.4168 214.7212,0.5838 C214.8882,0.7508 214.9712,0.9558 214.9712,1.1998 L214.9712,22.8328 C214.9712,23.0778 214.8882,23.2778 214.7212,23.4328 C214.5552,23.5888 214.3492,23.6668 214.1052,23.6668 L209.5712,23.6668 C209.3272,23.6668 209.1212,23.5888 208.9552,23.4328 C208.7882,23.2778 208.7052,23.0778 208.7052,22.8328 L208.7052,14.6668 L200.8382,14.6668 L200.8382,22.8328 C200.8382,23.0778 200.7552,23.2778 200.5882,23.4328 C200.4222,23.5888 200.2162,23.6668 199.9722,23.6668 L195.4052,23.6668 C195.1602,23.6668 194.9602,23.5888 194.8052,23.4328" id="Fill-27" fill="#FEFEFE"></path>
            <path d="M217.7542,23.4165 C217.5872,23.2495 217.5042,23.0555 217.5042,22.8335 L217.5042,1.2005 C217.5042,0.9565 217.5822,0.7505 217.7372,0.5835 C217.8922,0.4165 218.0932,0.3335 218.3372,0.3335 L234.0702,0.3335 C234.3142,0.3335 234.5202,0.4165 234.6872,0.5835 C234.8542,0.7505 234.9372,0.9565 234.9372,1.2005 L234.9372,4.5005 C234.9372,4.7455 234.8542,4.9455 234.6872,5.0995 C234.5202,5.2565 234.3142,5.3335 234.0702,5.3335 L223.5372,5.3335 L223.5372,9.5665 L233.3372,9.5665 C233.5812,9.5665 233.7872,9.6495 233.9532,9.8165 C234.1202,9.9835 234.2032,10.1895 234.2032,10.4335 L234.2032,13.4665 C234.2032,13.7115 234.1202,13.9165 233.9532,14.0835 C233.7872,14.2505 233.5812,14.3335 233.3372,14.3335 L223.5372,14.3335 L223.5372,18.6665 L234.3372,18.6665 C234.5812,18.6665 234.7872,18.7495 234.9542,18.9165 C235.1202,19.0835 235.2032,19.2895 235.2032,19.5335 L235.2032,22.8335 C235.2032,23.0775 235.1202,23.2785 234.9542,23.4325 C234.7872,23.5895 234.5812,23.6665 234.3372,23.6665 L218.3372,23.6665 C218.1152,23.6665 217.9212,23.5835 217.7542,23.4165" id="Fill-29" fill="#FEFEFE"></path>
            <path d="M242.5698,23.4165 C242.4028,23.2495 242.3198,23.0555 242.3198,22.8335 L242.3198,1.2005 C242.3198,0.9565 242.3978,0.7505 242.5528,0.5835 C242.7078,0.4165 242.9088,0.3335 243.1528,0.3335 L253.4528,0.3335 C256.2748,0.3335 258.3748,0.9115 259.7528,2.0665 C261.1298,3.2225 261.8198,4.8675 261.8198,7.0005 C261.8198,8.0665 261.5358,8.9895 260.9698,9.7665 C260.4028,10.5445 259.7748,11.1115 259.0858,11.4665 C259.9968,11.8665 260.7638,12.5285 261.3858,13.4505 C262.0078,14.3725 262.3198,15.4115 262.3198,16.5665 C262.3198,18.8115 261.5798,20.5555 260.1028,21.7995 C258.6248,23.0445 256.5078,23.6665 253.7528,23.6665 L243.1528,23.6665 C242.9308,23.6665 242.7368,23.5835 242.5698,23.4165 L242.5698,23.4165 Z M252.7528,9.5665 C253.5748,9.5665 254.2078,9.3445 254.6528,8.9005 C255.0968,8.4555 255.3188,7.8785 255.3188,7.1665 C255.3188,6.4785 255.1028,5.9165 254.6698,5.4835 C254.2358,5.0505 253.5968,4.8335 252.7528,4.8335 L248.5868,4.8335 L248.5868,9.5665 L252.7528,9.5665 Z M253.0528,19.1665 C253.9198,19.1665 254.5918,18.9165 255.0698,18.4165 C255.5468,17.9165 255.7858,17.3005 255.7858,16.5665 C255.7858,15.8115 255.5418,15.1835 255.0528,14.6835 C254.5638,14.1835 253.8968,13.9335 253.0528,13.9335 L248.5868,13.9335 L248.5868,19.1665 L253.0528,19.1665 Z" id="Fill-31" fill="#FEFEFE"></path>
            <path d="M264.8023,23.4165 C264.6353,23.2495 264.5523,23.0555 264.5523,22.8335 L264.5523,1.2005 C264.5523,0.9565 264.6293,0.7505 264.7853,0.5835 C264.9403,0.4165 265.1403,0.3335 265.3853,0.3335 L274.5523,0.3335 C277.4853,0.3335 279.7793,1.0005 281.4353,2.3335 C283.0903,3.6665 283.9183,5.5455 283.9183,7.9665 C283.9183,9.5225 283.5573,10.8445 282.8353,11.9335 C282.1123,13.0215 281.1183,13.8665 279.8523,14.4665 L284.3513,22.5995 C284.4183,22.7325 284.4523,22.8555 284.4523,22.9665 C284.4523,23.1445 284.3853,23.3055 284.2513,23.4495 C284.1183,23.5945 283.9513,23.6665 283.7513,23.6665 L279.0523,23.6665 C278.4073,23.6665 277.9513,23.3655 277.6853,22.7665 L274.0183,15.5335 L270.8193,15.5335 L270.8193,22.8335 C270.8193,23.0775 270.7353,23.2785 270.5683,23.4325 C270.4023,23.5895 270.1963,23.6665 269.9523,23.6665 L265.3853,23.6665 C265.1633,23.6665 264.9693,23.5835 264.8023,23.4165 L264.8023,23.4165 Z M274.5183,10.6335 C275.4733,10.6335 276.2023,10.3955 276.7023,9.9165 C277.2023,9.4385 277.4523,8.7785 277.4523,7.9335 C277.4523,7.0885 277.2023,6.4115 276.7023,5.8995 C276.2023,5.3885 275.4733,5.1335 274.5183,5.1335 L270.8193,5.1335 L270.8193,10.6335 L274.5183,10.6335 Z" id="Fill-33" fill="#FEFEFE"></path>
        </g>
    </g>
</svg>