<?xml version="1.0" encoding="UTF-8"?>
<svg width="463px" height="144px" viewBox="0 0 463 144" version="1.1" xmlns="http://www.w3.org/2000/svg" xmlns:xlink="http://www.w3.org/1999/xlink">
    <!-- Generator: Sketch 43.2 (39069) - http://www.bohemiancoding.com/sketch -->
    <title>Page 1</title>
    <desc>Created with Sketch.</desc>
    <defs>
        <polygon id="path-1" points="18.211 65 0.423 65 0.423 0.4885 18.211 0.4885"></polygon>
        <polygon id="path-3" points="0.3361 65 65.2171 65 65.2171 0.4883 0.3361 0.4883"></polygon>
        <polygon id="path-5" points="53.9426 65 0.0296 65 0.0296 0.4885 53.9426 0.4885 53.9426 65"></polygon>
        <polygon id="path-7" points="0.1817 0 57.6887 0 57.6887 66.3568 0.1817 66.3568"></polygon>
        <polygon id="path-9" points="55.126 65.4341 55.126 0.9221 0.1081 0.9221 0.1081 65.4341 55.126 65.4341"></polygon>
        <polygon id="path-11" points="54.8351 65 0.0001 65 0.0001 0.4885 54.8351 0.4885 54.8351 65"></polygon>
        <polygon id="path-13" points="57.2725 65 0.8715 65 0.8715 0.4885 57.2725 0.4885 57.2725 65"></polygon>
        <polygon id="path-15" points="49.2115 65 0.2755 65 0.2755 0.4881 49.2115 0.4881"></polygon>
        <polygon id="path-17" points="0.8877 65 56.1827 65 56.1827 0.4884 0.8877 0.4884"></polygon>
        <polygon id="path-19" points="0.357 65 55.376 65 55.376 0.4881 0.357 0.4881"></polygon>
    </defs>
    <g id="Page-1" stroke="none" stroke-width="1" fill="none" fill-rule="evenodd">
        <g>
            <path d="M207.0807,64.7435 C207.5107,64.2825 207.7267,63.7445 207.7267,63.1305 L207.7267,3.2265 C207.7267,2.5515 207.5107,1.9985 207.0807,1.5685 C206.6487,1.1385 206.0977,0.9225 205.4227,0.9225 L192.2417,0.9225 C191.6277,0.9225 191.0897,1.1385 190.6287,1.5685 C190.1697,1.9985 189.9377,2.5515 189.9377,3.2265 L189.9377,63.1305 C189.9377,63.7445 190.1697,64.2825 190.6287,64.7435 C191.0897,65.2045 191.6277,65.4345 192.2417,65.4345 L205.4227,65.4345 C206.0977,65.4345 206.6487,65.2045 207.0807,64.7435" id="Fill-1" fill="#FEFEFE"></path>
            <g id="Group-5" transform="translate(383.000000, 79.000000)">
                <mask id="mask-2" fill="white">
                    <use xlink:href="#path-1"></use>
                </mask>
                <g id="Clip-4"></g>
                <path d="M15.907,0.4885 L2.727,0.4885 C2.113,0.4885 1.575,0.7045 1.114,1.1345 C0.655,1.5635 0.423,2.1175 0.423,2.7925 L0.423,62.6965 C0.423,63.3105 0.655,63.8485 1.114,64.3095 C1.575,64.7705 2.113,65.0005 2.727,65.0005 L15.907,65.0005 C16.582,65.0005 17.133,64.7705 17.565,64.3095 C17.995,63.8485 18.211,63.3105 18.211,62.6965 L18.211,2.7925 C18.211,2.1175 17.995,1.5635 17.565,1.1345 C17.133,0.7045 16.582,0.4885 15.907,0.4885" id="Fill-3" fill="#FEFEFE" mask="url(#mask-2)"></path>
            </g>
            <g id="Group-8" transform="translate(313.000000, 79.000000)">
                <mask id="mask-4" fill="white">
                    <use xlink:href="#path-3"></use>
                </mask>
                <g id="Clip-7"></g>
                <path d="M43.6521,3.1613 C43.0371,1.3793 41.8081,0.4883 39.9651,0.4883 L25.5881,0.4883 C23.7451,0.4883 22.5161,1.3793 21.9031,3.1613 L0.4291,62.2343 C0.3671,62.4193 0.3361,62.6963 0.3361,63.0653 C0.3361,63.5573 0.5361,64.0013 0.9361,64.4013 C1.3341,64.8023 1.7801,65.0003 2.2731,65.0003 L14.2531,65.0003 C15.7281,65.0003 16.7711,64.3253 17.3871,62.9723 L20.7051,54.0333 L44.8501,54.0333 L48.1681,62.9723 C48.7811,64.3253 49.8261,65.0003 51.3011,65.0003 L63.2821,65.0003 C63.7721,65.0003 64.2181,64.8023 64.6181,64.4013 C65.0171,64.0013 65.2171,63.5573 65.2171,63.0653 C65.2171,62.6963 65.1861,62.4193 65.1241,62.2343 L43.6521,3.1613 Z M24.5741,40.2093 L32.7771,16.7083 L40.9791,40.2093 L24.5741,40.2093 Z" id="Fill-6" fill="#FEFEFE" mask="url(#mask-4)"></path>
            </g>
            <g id="Group-11" transform="translate(408.000000, 79.000000)">
                <mask id="mask-6" fill="white">
                    <use xlink:href="#path-5"></use>
                </mask>
                <g id="Clip-10"></g>
                <path d="M51.6386,0.4885 L39.9346,0.4885 C39.2566,0.4885 38.7046,0.7175 38.2746,1.1795 C37.8446,1.6405 37.6306,2.2095 37.6306,2.8845 L37.6306,36.6145 L15.8806,2.2395 C15.2036,1.0735 14.1596,0.4885 12.7476,0.4885 L2.3336,0.4885 C1.6566,0.4885 1.1026,0.7175 0.6736,1.1795 C0.2436,1.6405 0.0296,2.2095 0.0296,2.8845 L0.0296,62.6965 C0.0296,63.3105 0.2586,63.8485 0.7206,64.3095 C1.1816,64.7705 1.7186,65.0005 2.3336,65.0005 L14.0366,65.0005 C14.7136,65.0005 15.2816,64.7865 15.7426,64.3545 C16.2036,63.9265 16.4336,63.3735 16.4336,62.6965 L16.4336,30.2555 L38.0916,63.2495 C38.7666,64.4175 39.8106,65.0005 41.2246,65.0005 L51.6386,65.0005 C52.3136,65.0005 52.8666,64.7705 53.2966,64.3095 C53.7266,63.8485 53.9426,63.2815 53.9426,62.6035 L53.9426,2.8845 C53.9426,2.2095 53.7266,1.6405 53.2966,1.1795 C52.8666,0.7175 52.3136,0.4885 51.6386,0.4885" id="Fill-9" fill="#FEFEFE" mask="url(#mask-6)"></path>
            </g>
            <path d="M52.4391,0.9225 L2.3961,0.9225 C1.7201,0.9225 1.1521,1.1515 0.6921,1.6135 C0.2301,2.0745 0.0001,2.6435 0.0001,3.3185 L0.0001,13.6395 C0.0001,14.3165 0.2301,14.8705 0.6921,15.2995 C1.1521,15.7295 1.7201,15.9435 2.3961,15.9435 L18.6161,15.9435 L18.6161,63.1305 C18.6161,63.8075 18.8471,64.3605 19.3081,64.7885 C19.7681,65.2205 20.3361,65.4345 21.0121,65.4345 L33.8231,65.4345 C34.4981,65.4345 35.0671,65.2205 35.5281,64.7885 C35.9881,64.3605 36.2191,63.8075 36.2191,63.1305 L36.2191,15.9435 L52.4391,15.9435 C53.1141,15.9435 53.6831,15.7295 54.1431,15.2995 C54.6051,14.8705 54.8351,14.3165 54.8351,13.6395 L54.8351,3.3185 C54.8351,2.6435 54.6051,2.0745 54.1431,1.6135 C53.6831,1.1515 53.1141,0.9225 52.4391,0.9225" id="Fill-12" fill="#FEFEFE"></path>
            <path d="M63.1752,65.4341 L75.8012,65.4341 C76.4762,65.4341 77.0452,65.2201 77.5052,64.7881 C77.9662,64.3611 78.1972,63.8071 78.1972,63.1301 L78.1972,42.9481 L87.0442,42.9481 L97.1812,62.9461 C97.9182,64.6041 99.1772,65.4341 100.9602,65.4341 L113.9542,65.4341 C114.5072,65.4341 114.9692,65.2361 115.3362,64.8361 C115.7052,64.4351 115.8902,63.9921 115.8902,63.4991 C115.8902,63.1931 115.7982,62.8531 115.6132,62.4841 L103.1722,39.9981 C106.6742,38.3401 109.4222,36.0041 111.4202,32.9941 C113.4162,29.9831 114.4152,26.3291 114.4152,22.0271 C114.4152,15.3311 112.1262,10.1381 107.5492,6.4531 C102.9712,2.7651 96.6292,0.9221 88.5192,0.9221 L63.1752,0.9221 C62.4982,0.9221 61.9442,1.1521 61.5162,1.6131 C61.0852,2.0741 60.8712,2.6441 60.8712,3.3191 L60.8712,63.1301 C60.8712,63.7441 61.1012,64.2821 61.5622,64.7431 C62.0232,65.2051 62.5602,65.4341 63.1752,65.4341 L63.1752,65.4341 Z M78.1972,14.1931 L88.4272,14.1931 C91.0672,14.1931 93.0812,14.8991 94.4622,16.3121 C95.8452,17.7281 96.5372,19.6001 96.5372,21.9351 C96.5372,24.2711 95.8452,26.0981 94.4622,27.4181 C93.0812,28.7411 91.0672,29.4011 88.4272,29.4011 L78.1972,29.4011 L78.1972,14.1931 Z" id="Fill-14" fill="#FEFEFE"></path>
            <path d="M162.7067,3.5955 C162.0917,1.8135 160.8627,0.9225 159.0197,0.9225 L144.6427,0.9225 C142.7997,0.9225 141.5707,1.8135 140.9577,3.5955 L119.4837,62.6685 C119.4217,62.8535 119.3907,63.1305 119.3907,63.4995 C119.3907,63.9915 119.5897,64.4355 119.9907,64.8355 C120.3887,65.2365 120.8347,65.4345 121.3267,65.4345 L133.3067,65.4345 C134.7817,65.4345 135.8257,64.7595 136.4417,63.4065 L139.7587,54.4675 L163.9047,54.4675 L167.2227,63.4065 C167.8357,64.7595 168.8807,65.4345 170.3557,65.4345 L182.3367,65.4345 C182.8267,65.4345 183.2727,65.2365 183.6727,64.8355 C184.0717,64.4355 184.2717,63.9915 184.2717,63.4995 C184.2717,63.1305 184.2397,62.8535 184.1797,62.6685 L162.7067,3.5955 Z M143.6287,40.6435 L151.8317,17.1425 L160.0337,40.6435 L143.6287,40.6435 Z" id="Fill-16" fill="#FEFEFE"></path>
            <path d="M266.1539,65.4341 C266.8289,65.4341 267.3819,65.2051 267.8119,64.7431 C268.2419,64.2821 268.4579,63.7151 268.4579,63.0381 L268.4579,3.3191 C268.4579,2.6441 268.2419,2.0741 267.8119,1.6131 C267.3819,1.1521 266.8289,0.9221 266.1539,0.9221 L254.4499,0.9221 C253.7719,0.9221 253.2199,1.1521 252.7899,1.6131 C252.3609,2.0741 252.1459,2.6441 252.1459,3.3191 L252.1459,37.0481 L230.3959,2.6731 C229.7189,1.5071 228.6749,0.9221 227.2629,0.9221 L216.8489,0.9221 C216.1719,0.9221 215.6179,1.1521 215.1899,1.6131 C214.7589,2.0741 214.5449,2.6441 214.5449,3.3191 L214.5449,63.1301 C214.5449,63.7441 214.7739,64.2821 215.2359,64.7431 C215.6969,65.2051 216.2339,65.4341 216.8489,65.4341 L228.5519,65.4341 C229.2289,65.4341 229.7959,65.2201 230.2579,64.7881 C230.7189,64.3611 230.9479,63.8071 230.9479,63.1301 L230.9479,30.6901 L252.6069,63.6841 C253.2819,64.8511 254.3259,65.4341 255.7399,65.4341 L266.1539,65.4341 Z" id="Fill-18" fill="#FEFEFE"></path>
            <path d="M290.8978,65.4341 L303.2468,65.4341 C303.9218,65.4341 304.4748,65.2051 304.9048,64.7431 C305.3348,64.2821 305.5508,63.7441 305.5508,63.1301 L305.5508,42.6711 L331.9078,42.6711 C332.5828,42.6711 333.1528,42.4571 333.6128,42.0251 C334.0738,41.5951 334.3048,41.0441 334.3048,40.3671 L334.3048,30.5981 C334.3048,29.9221 334.0738,29.3531 333.6128,28.8921 C333.1528,28.4331 332.5828,28.2011 331.9078,28.2011 L305.5508,28.2011 L305.5508,15.3921 L333.7508,15.3921 C334.4268,15.3921 334.9948,15.1761 335.4568,14.7461 C335.9168,14.3171 336.1468,13.7651 336.1468,13.0881 L336.1468,3.3191 C336.1468,2.6441 335.9168,2.0741 335.4568,1.6131 C334.9948,1.1521 334.4268,0.9221 333.7508,0.9221 L290.8978,0.9221 C290.2198,0.9221 289.6668,1.1521 289.2388,1.6131 C288.8078,2.0741 288.5938,2.6441 288.5938,3.3191 L288.5938,63.1301 C288.5938,63.7441 288.8228,64.2821 289.2848,64.7431 C289.7458,65.2051 290.2828,65.4341 290.8978,65.4341" id="Fill-20" fill="#FEFEFE"></path>
            <g id="Group-24" transform="translate(342.000000, 0.000000)">
                <mask id="mask-8" fill="white">
                    <use xlink:href="#path-7"></use>
                </mask>
                <g id="Clip-23"></g>
                <path d="M8.2917,59.9958 C13.3297,64.2368 20.2107,66.3568 28.9347,66.3568 C37.6597,66.3568 44.5257,64.2368 49.5327,59.9958 C54.5397,55.7568 57.1977,49.5218 57.5057,41.2868 C57.6267,37.8488 57.6887,35.2058 57.6887,33.3628 C57.6887,31.5808 57.6267,28.9078 57.5057,25.3438 C57.2587,17.2348 54.5707,10.9848 49.4417,6.5908 C44.3107,2.1978 37.4747,-0.0002 28.9347,-0.0002 C20.3337,-0.0002 13.4677,2.1978 8.3377,6.5908 C3.2077,10.9848 0.5187,17.2348 0.2737,25.3438 C0.2117,27.1278 0.1817,29.8008 0.1817,33.3628 C0.1817,36.9268 0.2117,39.5678 0.2737,41.2868 C0.5807,49.5218 3.2537,55.7568 8.2917,59.9958 M18.1537,25.6208 C18.2757,21.6288 19.2897,18.6638 21.1947,16.7288 C23.0977,14.7918 25.6787,13.8238 28.9347,13.8238 C32.1297,13.8238 34.6797,14.7918 36.5847,16.7288 C38.4887,18.6638 39.5027,21.6288 39.6257,25.6208 C39.7487,29.0628 39.8107,31.5518 39.8107,33.0858 C39.8107,34.6228 39.7487,37.1718 39.6257,40.7358 C39.5027,44.7298 38.4887,47.6928 36.5847,49.6278 C34.6797,51.5648 32.1297,52.5328 28.9347,52.5328 C25.6787,52.5328 23.0977,51.5648 21.1947,49.6278 C19.2897,47.6928 18.2757,44.7298 18.1537,40.7358 C18.0917,38.9538 18.0607,36.4048 18.0607,33.0858 C18.0607,29.8308 18.0917,27.3418 18.1537,25.6208" id="Fill-22" fill="#FEFEFE" mask="url(#mask-8)"></path>
            </g>
            <g id="Group-27" transform="translate(407.000000, 0.000000)">
                <mask id="mask-10" fill="white">
                    <use xlink:href="#path-9"></use>
                </mask>
                <g id="Clip-26"></g>
                <path d="M15.0381,65.4341 C15.7131,65.4341 16.2821,65.2201 16.7431,64.7881 C17.2031,64.3611 17.4341,63.8071 17.4341,63.1301 L17.4341,42.9481 L26.2811,42.9481 L36.4201,62.9461 C37.1551,64.6041 38.4151,65.4341 40.1971,65.4341 L53.1911,65.4341 C53.7441,65.4341 54.2061,65.2361 54.5751,64.8361 C54.9411,64.4351 55.1261,63.9921 55.1261,63.4991 C55.1261,63.1931 55.0341,62.8531 54.8521,62.4841 L42.4091,39.9981 C45.9101,38.3401 48.6601,36.0041 50.6581,32.9941 C52.6531,29.9831 53.6521,26.3291 53.6521,22.0271 C53.6521,15.3311 51.3621,10.1381 46.7881,6.4531 C42.2091,2.7651 35.8661,0.9221 27.7551,0.9221 L2.4121,0.9221 C1.7351,0.9221 1.1821,1.1521 0.7531,1.6131 C0.3221,2.0741 0.1081,2.6441 0.1081,3.3191 L0.1081,63.1301 C0.1081,63.7441 0.3381,64.2821 0.7991,64.7431 C1.2601,65.2051 1.7971,65.4341 2.4121,65.4341 L15.0381,65.4341 Z M17.4341,14.1931 L27.6631,14.1931 C30.3041,14.1931 32.3181,14.8991 33.6991,16.3121 C35.0831,17.7281 35.7741,19.6001 35.7741,21.9351 C35.7741,24.2711 35.0831,26.0981 33.6991,27.4181 C32.3181,28.7411 30.3041,29.4011 27.6631,29.4011 L17.4341,29.4011 L17.4341,14.1931 Z" id="Fill-25" fill="#FEFEFE" mask="url(#mask-10)"></path>
            </g>
            <g id="Group-30" transform="translate(0.000000, 79.000000)">
                <mask id="mask-12" fill="white">
                    <use xlink:href="#path-11"></use>
                </mask>
                <g id="Clip-29"></g>
                <path d="M52.4391,0.4885 L2.3961,0.4885 C1.7201,0.4885 1.1521,0.7175 0.6921,1.1795 C0.2301,1.6405 0.0001,2.2095 0.0001,2.8845 L0.0001,13.2055 C0.0001,13.8825 0.2301,14.4365 0.6921,14.8655 C1.1521,15.2955 1.7201,15.5095 2.3961,15.5095 L18.6161,15.5095 L18.6161,62.6965 C18.6161,63.3735 18.8471,63.9265 19.3081,64.3545 C19.7681,64.7865 20.3361,65.0005 21.0121,65.0005 L33.8231,65.0005 C34.4981,65.0005 35.0671,64.7865 35.5281,64.3545 C35.9881,63.9265 36.2191,63.3735 36.2191,62.6965 L36.2191,15.5095 L52.4391,15.5095 C53.1141,15.5095 53.6831,15.2955 54.1431,14.8655 C54.6051,14.4365 54.8351,13.8825 54.8351,13.2055 L54.8351,2.8845 C54.8351,2.2095 54.6051,1.6405 54.1431,1.1795 C53.6831,0.7175 53.1141,0.4885 52.4391,0.4885" id="Fill-28" fill="#FEFEFE" mask="url(#mask-12)"></path>
            </g>
            <g id="Group-33" transform="translate(60.000000, 79.000000)">
                <mask id="mask-14" fill="white">
                    <use xlink:href="#path-13"></use>
                </mask>
                <g id="Clip-32"></g>
                <path d="M54.8765,0.4885 L42.3425,0.4885 C41.6655,0.4885 41.0985,0.7175 40.6375,1.1795 C40.1765,1.6405 39.9465,2.2095 39.9465,2.8845 L39.9465,24.7255 L18.1975,24.7255 L18.1975,2.8845 C18.1975,2.2095 17.9665,1.6405 17.5055,1.1795 C17.0455,0.7175 16.4755,0.4885 15.8015,0.4885 L3.1755,0.4885 C2.4975,0.4885 1.9445,0.7175 1.5155,1.1795 C1.0845,1.6405 0.8715,2.2095 0.8715,2.8845 L0.8715,62.6965 C0.8715,63.3735 1.0845,63.9265 1.5155,64.3545 C1.9445,64.7865 2.4975,65.0005 3.1755,65.0005 L15.8015,65.0005 C16.4755,65.0005 17.0455,64.7865 17.5055,64.3545 C17.9665,63.9265 18.1975,63.3735 18.1975,62.6965 L18.1975,40.1175 L39.9465,40.1175 L39.9465,62.6965 C39.9465,63.3735 40.1765,63.9265 40.6375,64.3545 C41.0985,64.7865 41.6655,65.0005 42.3425,65.0005 L54.8765,65.0005 C55.5515,65.0005 56.1205,64.7865 56.5805,64.3545 C57.0425,63.9265 57.2725,63.3735 57.2725,62.6965 L57.2725,2.8845 C57.2725,2.2095 57.0425,1.6405 56.5805,1.1795 C56.1205,0.7175 55.5515,0.4885 54.8765,0.4885" id="Fill-31" fill="#FEFEFE" mask="url(#mask-14)"></path>
            </g>
            <g id="Group-36" transform="translate(124.000000, 79.000000)">
                <mask id="mask-16" fill="white">
                    <use xlink:href="#path-15"></use>
                </mask>
                <g id="Clip-35"></g>
                <path d="M46.8155,51.1761 L16.9565,51.1761 L16.9565,39.1951 L44.0515,39.1951 C44.7265,39.1951 45.2945,38.9651 45.7555,38.5041 C46.2175,38.0431 46.4465,37.4761 46.4465,36.7991 L46.4465,28.4131 C46.4465,27.7381 46.2175,27.1691 45.7555,26.7081 C45.2945,26.2461 44.7265,26.0171 44.0515,26.0171 L16.9565,26.0171 L16.9565,14.3121 L46.0785,14.3121 C46.7535,14.3121 47.3225,14.0981 47.7835,13.6661 C48.2445,13.2391 48.4745,12.6851 48.4745,12.0081 L48.4745,2.8841 C48.4745,2.2101 48.2445,1.6401 47.7835,1.1791 C47.3225,0.7181 46.7535,0.4881 46.0785,0.4881 L2.5795,0.4881 C1.9025,0.4881 1.3485,0.7181 0.9205,1.1791 C0.4895,1.6401 0.2755,2.2101 0.2755,2.8841 L0.2755,62.6961 C0.2755,63.3101 0.5055,63.8481 0.9665,64.3091 C1.4275,64.7701 1.9645,65.0001 2.5795,65.0001 L46.8155,65.0001 C47.4905,65.0001 48.0595,64.7861 48.5215,64.3541 C48.9815,63.9271 49.2115,63.3731 49.2115,62.6961 L49.2115,53.5721 C49.2115,52.8971 48.9815,52.3281 48.5215,51.8671 C48.0595,51.4061 47.4905,51.1761 46.8155,51.1761" id="Fill-34" fill="#FEFEFE" mask="url(#mask-16)"></path>
            </g>
            <g id="Group-39" transform="translate(192.000000, 79.000000)">
                <mask id="mask-18" fill="white">
                    <use xlink:href="#path-17"></use>
                </mask>
                <g id="Clip-38"></g>
                <path d="M47.2427,31.2704 C49.1467,30.2874 50.8837,28.7214 52.4497,26.5704 C54.0167,24.4194 54.8007,21.8704 54.8007,18.9204 C54.8007,13.0234 52.8947,8.4764 49.0867,5.2814 C45.2767,2.0864 39.4707,0.4884 31.6687,0.4884 L3.1917,0.4884 C2.5147,0.4884 1.9607,0.7184 1.5317,1.1794 C1.1017,1.6404 0.8877,2.2094 0.8877,2.8844 L0.8877,62.6964 C0.8877,63.3104 1.1167,63.8484 1.5787,64.3094 C2.0397,64.7704 2.5757,65.0004 3.1917,65.0004 L32.4977,65.0004 C40.1147,65.0004 45.9667,63.2814 50.0547,59.8384 C54.1387,56.3984 56.1827,51.5764 56.1827,45.3714 C56.1827,42.1764 55.3217,39.3034 53.6017,36.7534 C51.8807,34.2044 49.7617,32.3754 47.2427,31.2704 L47.2427,31.2704 Z M18.2137,12.9314 L29.7337,12.9314 C32.0667,12.9314 33.8337,13.5294 35.0317,14.7264 C36.2307,15.9254 36.8287,17.4784 36.8287,19.3814 C36.8287,21.3484 36.2147,22.9454 34.9857,24.1744 C33.7567,25.4024 32.0047,26.0174 29.7337,26.0174 L18.2137,26.0174 L18.2137,12.9314 Z M36.1377,50.4854 C34.8157,51.8664 32.9587,52.5574 30.5627,52.5574 L18.2137,52.5574 L18.2137,38.0904 L30.5627,38.0904 C32.8967,38.0904 34.7397,38.7814 36.0917,40.1624 C37.4427,41.5464 38.1187,43.2834 38.1187,45.3714 C38.1187,47.3984 37.4587,49.1014 36.1377,50.4854 L36.1377,50.4854 Z" id="Fill-37" fill="#FEFEFE" mask="url(#mask-18)"></path>
            </g>
            <g id="Group-42" transform="translate(254.000000, 79.000000)">
                <mask id="mask-20" fill="white">
                    <use xlink:href="#path-19"></use>
                </mask>
                <g id="Clip-41"></g>
                <path d="M42.658,39.5641 C46.16,37.9051 48.908,35.5701 50.906,32.5601 C52.902,29.5491 53.901,25.8951 53.901,21.5931 C53.901,14.8971 51.612,9.7041 47.035,6.0191 C42.458,2.3311 36.115,0.4881 28.005,0.4881 L2.661,0.4881 C1.984,0.4881 1.43,0.7181 1.002,1.1791 C0.571,1.6401 0.357,2.2101 0.357,2.8841 L0.357,62.6961 C0.357,63.3101 0.587,63.8481 1.048,64.3091 C1.509,64.7701 2.046,65.0001 2.661,65.0001 L15.287,65.0001 C15.962,65.0001 16.531,64.7861 16.991,64.3541 C17.452,63.9271 17.683,63.3731 17.683,62.6961 L17.683,42.5131 L26.53,42.5131 L36.667,62.5111 C37.404,64.1701 38.663,65.0001 40.446,65.0001 L53.44,65.0001 C53.993,65.0001 54.455,64.8021 54.823,64.4011 C55.191,64.0011 55.376,63.5581 55.376,63.0651 C55.376,62.7591 55.284,62.4191 55.099,62.0501 L42.658,39.5641 Z M33.948,26.9841 C32.567,28.3071 30.553,28.9661 27.913,28.9661 L17.683,28.9661 L17.683,13.7591 L27.913,13.7591 C30.553,13.7591 32.567,14.4651 33.948,15.8781 C35.331,17.2931 36.023,19.1651 36.023,21.5011 C36.023,23.8371 35.331,25.6641 33.948,26.9841 L33.948,26.9841 Z" id="Fill-40" fill="#FEFEFE" mask="url(#mask-20)"></path>
            </g>
        </g>
    </g>
</svg>